<svg xmlns="http://www.w3.org/2000/svg" xmlns:xlink="http://www.w3.org/1999/xlink" viewBox="0 0 1125 2436"><defs><style>.cls-1{isolation:isolate;}.cls-2{fill:url(#linear-gradient);}.cls-3{fill:#f2f0e1;}.cls-275,.cls-276,.cls-279,.cls-280,.cls-281,.cls-282,.cls-283,.cls-286,.cls-4{opacity:0.24;}.cls-104,.cls-105,.cls-110,.cls-112,.cls-117,.cls-122,.cls-13,.cls-135,.cls-137,.cls-14,.cls-147,.cls-159,.cls-161,.cls-178,.cls-274,.cls-275,.cls-276,.cls-277,.cls-278,.cls-279,.cls-280,.cls-281,.cls-282,.cls-283,.cls-284,.cls-285,.cls-286,.cls-33,.cls-37,.cls-38,.cls-4,.cls-43,.cls-45,.cls-50,.cls-55,.cls-6,.cls-68,.cls-70,.cls-8,.cls-80,.cls-9,.cls-92,.cls-94,.cls-96,.cls-97,.cls-98,.cls-99{mix-blend-mode:multiply;}.cls-4{fill:url(#linear-gradient-2);}.cls-5{fill:url(#linear-gradient-3);}.cls-6{opacity:0.29;}.cls-7{fill:#728a8c;}.cls-29,.cls-8{fill:#657b7c;}.cls-9{fill:url(#linear-gradient-4);}.cls-10{fill:#5c7676;}.cls-11{fill:#434d50;}.cls-12{fill:#313233;}.cls-13,.cls-14{fill:#5e5e5e;}.cls-104,.cls-13,.cls-37{opacity:0.21;}.cls-105,.cls-110,.cls-112,.cls-117,.cls-122,.cls-135,.cls-137,.cls-14,.cls-147,.cls-159,.cls-161,.cls-38,.cls-43,.cls-45,.cls-50,.cls-55,.cls-68,.cls-70,.cls-80,.cls-92,.cls-94{opacity:0.42;}.cls-15{fill:#19191a;}.cls-16{fill:#1e1f20;}.cls-17{fill:#2d2e2e;}.cls-18{fill:#3b4447;}.cls-19{fill:#495555;}.cls-20{fill:#293134;}.cls-21{fill:#323c3e;}.cls-22{fill:#4e595c;}.cls-23{fill:#4c5d5f;}.cls-24{fill:#2b3436;}.cls-25{fill:#20282b;}.cls-26{fill:#4b5559;}.cls-27{fill:#526969;}.cls-28{fill:#3e5353;}.cls-30{fill:#516061;}.cls-31{fill:#314445;}.cls-32{fill:#7c9494;}.cls-34{fill:url(#linear-gradient-5);}.cls-35{fill:url(#linear-gradient-6);}.cls-36{fill:url(#linear-gradient-7);}.cls-37{fill:url(#linear-gradient-8);}.cls-38{fill:url(#linear-gradient-9);}.cls-39{fill:url(#linear-gradient-10);}.cls-40{fill:url(#linear-gradient-11);}.cls-41{fill:url(#linear-gradient-12);}.cls-42{fill:url(#linear-gradient-13);}.cls-43{fill:url(#linear-gradient-14);}.cls-44{fill:url(#linear-gradient-15);}.cls-45{fill:url(#linear-gradient-16);}.cls-46{fill:url(#linear-gradient-17);}.cls-47{fill:url(#linear-gradient-18);}.cls-48{fill:url(#linear-gradient-19);}.cls-49{fill:url(#linear-gradient-20);}.cls-50{fill:url(#linear-gradient-21);}.cls-51{fill:url(#linear-gradient-22);}.cls-52{fill:url(#linear-gradient-23);}.cls-53{fill:url(#linear-gradient-24);}.cls-54{fill:url(#linear-gradient-25);}.cls-55{fill:url(#linear-gradient-26);}.cls-56{fill:url(#linear-gradient-27);}.cls-57{fill:url(#linear-gradient-28);}.cls-58{fill:url(#linear-gradient-29);}.cls-59{fill:url(#linear-gradient-30);}.cls-60{fill:url(#linear-gradient-31);}.cls-61{fill:url(#linear-gradient-32);}.cls-62{fill:url(#linear-gradient-33);}.cls-63{fill:url(#linear-gradient-34);}.cls-64{fill:url(#linear-gradient-35);}.cls-65{fill:url(#linear-gradient-36);}.cls-66{fill:url(#linear-gradient-37);}.cls-67{fill:url(#linear-gradient-38);}.cls-68{fill:url(#linear-gradient-39);}.cls-69{fill:url(#linear-gradient-40);}.cls-70{fill:url(#linear-gradient-41);}.cls-71{fill:url(#linear-gradient-42);}.cls-72{fill:url(#linear-gradient-43);}.cls-73{fill:url(#linear-gradient-44);}.cls-74{fill:url(#linear-gradient-45);}.cls-75{fill:url(#linear-gradient-46);}.cls-76{fill:url(#linear-gradient-47);}.cls-77{fill:url(#linear-gradient-48);}.cls-78{fill:url(#linear-gradient-49);}.cls-79{fill:url(#linear-gradient-50);}.cls-80{fill:url(#linear-gradient-51);}.cls-81{fill:url(#linear-gradient-52);}.cls-82{fill:url(#linear-gradient-53);}.cls-83{fill:url(#linear-gradient-54);}.cls-84{fill:url(#linear-gradient-55);}.cls-85{fill:url(#linear-gradient-56);}.cls-86{fill:url(#linear-gradient-57);}.cls-87{fill:url(#linear-gradient-58);}.cls-88{fill:url(#linear-gradient-59);}.cls-89{fill:url(#linear-gradient-60);}.cls-90{fill:url(#linear-gradient-61);}.cls-91{fill:url(#linear-gradient-62);}.cls-92{fill:url(#linear-gradient-63);}.cls-93{fill:url(#linear-gradient-64);}.cls-94{fill:url(#linear-gradient-65);}.cls-95{fill:url(#linear-gradient-66);}.cls-96,.cls-97,.cls-98,.cls-99{opacity:0.27;}.cls-96{fill:url(#linear-gradient-67);}.cls-97{fill:url(#linear-gradient-68);}.cls-98{fill:url(#linear-gradient-69);}.cls-99{fill:url(#linear-gradient-70);}.cls-100{opacity:0.47;}.cls-100,.cls-226{mix-blend-mode:screen;}.cls-101{fill:url(#linear-gradient-71);}.cls-102{fill:url(#linear-gradient-72);}.cls-103{fill:url(#linear-gradient-73);}.cls-104{fill:url(#linear-gradient-74);}.cls-105{fill:url(#linear-gradient-75);}.cls-106{fill:url(#linear-gradient-76);}.cls-107{fill:url(#linear-gradient-77);}.cls-108{fill:url(#linear-gradient-78);}.cls-109{fill:url(#linear-gradient-79);}.cls-110{fill:url(#linear-gradient-80);}.cls-111{fill:url(#linear-gradient-81);}.cls-112{fill:url(#linear-gradient-82);}.cls-113{fill:url(#linear-gradient-83);}.cls-114{fill:url(#linear-gradient-84);}.cls-115{fill:url(#linear-gradient-85);}.cls-116{fill:url(#linear-gradient-86);}.cls-117{fill:url(#linear-gradient-87);}.cls-118{fill:url(#linear-gradient-88);}.cls-119{fill:url(#linear-gradient-89);}.cls-120{fill:url(#linear-gradient-90);}.cls-121{fill:url(#linear-gradient-91);}.cls-122{fill:url(#linear-gradient-92);}.cls-123{fill:url(#linear-gradient-93);}.cls-124{fill:url(#linear-gradient-94);}.cls-125{fill:url(#linear-gradient-95);}.cls-126{fill:url(#linear-gradient-96);}.cls-127{fill:url(#linear-gradient-97);}.cls-128{fill:url(#linear-gradient-98);}.cls-129{fill:url(#linear-gradient-99);}.cls-130{fill:url(#linear-gradient-100);}.cls-131{fill:url(#linear-gradient-101);}.cls-132{fill:url(#linear-gradient-102);}.cls-133{fill:url(#linear-gradient-103);}.cls-134{fill:url(#linear-gradient-104);}.cls-135{fill:url(#linear-gradient-105);}.cls-136{fill:url(#linear-gradient-106);}.cls-137{fill:url(#linear-gradient-107);}.cls-138{fill:url(#linear-gradient-108);}.cls-139{fill:url(#linear-gradient-109);}.cls-140{fill:url(#linear-gradient-110);}.cls-141{fill:url(#linear-gradient-111);}.cls-142{fill:url(#linear-gradient-112);}.cls-143{fill:url(#linear-gradient-113);}.cls-144{fill:url(#linear-gradient-114);}.cls-145{fill:url(#linear-gradient-115);}.cls-146{fill:url(#linear-gradient-116);}.cls-147{fill:url(#linear-gradient-117);}.cls-148{fill:url(#linear-gradient-118);}.cls-149{fill:url(#linear-gradient-119);}.cls-150{fill:url(#linear-gradient-120);}.cls-151{fill:url(#linear-gradient-121);}.cls-152{fill:url(#linear-gradient-122);}.cls-153{fill:url(#linear-gradient-123);}.cls-154{fill:url(#linear-gradient-124);}.cls-155{fill:url(#linear-gradient-125);}.cls-156{fill:url(#linear-gradient-126);}.cls-157{fill:url(#linear-gradient-127);}.cls-158{fill:url(#linear-gradient-128);}.cls-159{fill:url(#linear-gradient-129);}.cls-160{fill:url(#linear-gradient-130);}.cls-161{fill:url(#linear-gradient-131);}.cls-162{fill:url(#linear-gradient-132);}.cls-163{fill:url(#linear-gradient-134);}.cls-164{fill:#905051;}.cls-165{fill:#a37580;}.cls-166{fill:#6e3c3c;}.cls-167{fill:#a28a89;}.cls-168{fill:#784b4d;}.cls-169{fill:#352d2e;}.cls-170{fill:#4a3433;}.cls-171{fill:#553837;}.cls-172{fill:#463534;}.cls-173{fill:#663636;}.cls-174{fill:#6f3b3c;}.cls-175{fill:#2d2829;}.cls-176{fill:#423231;}.cls-177{fill:#876565;}.cls-178{opacity:0.51;}.cls-179{fill:url(#linear-gradient-195);}.cls-180{fill:url(#linear-gradient-196);}.cls-181{fill:url(#linear-gradient-197);}.cls-182{fill:url(#linear-gradient-198);}.cls-183{fill:url(#linear-gradient-199);}.cls-184{fill:url(#linear-gradient-200);}.cls-185{fill:url(#linear-gradient-201);}.cls-186{fill:url(#linear-gradient-202);}.cls-187{fill:url(#linear-gradient-203);}.cls-188{fill:url(#linear-gradient-204);}.cls-189{fill:url(#linear-gradient-205);}.cls-190{fill:url(#linear-gradient-206);}.cls-191{fill:url(#linear-gradient-207);}.cls-192{fill:url(#linear-gradient-208);}.cls-193{fill:url(#linear-gradient-209);}.cls-194{fill:url(#linear-gradient-210);}.cls-195{fill:url(#linear-gradient-211);}.cls-196{fill:url(#linear-gradient-212);}.cls-197{fill:url(#linear-gradient-213);}.cls-198{fill:url(#linear-gradient-214);}.cls-199{fill:url(#linear-gradient-215);}.cls-200{fill:url(#linear-gradient-216);}.cls-201{fill:url(#linear-gradient-217);}.cls-202{fill:url(#linear-gradient-218);}.cls-203{fill:url(#linear-gradient-219);}.cls-204{fill:url(#linear-gradient-220);}.cls-205{fill:url(#linear-gradient-221);}.cls-206{fill:url(#linear-gradient-222);}.cls-207{fill:url(#linear-gradient-223);}.cls-208{fill:url(#linear-gradient-224);}.cls-209{fill:url(#linear-gradient-225);}.cls-210{fill:url(#linear-gradient-226);}.cls-211{fill:url(#linear-gradient-227);}.cls-212{fill:url(#linear-gradient-228);}.cls-213{fill:url(#linear-gradient-229);}.cls-214{fill:url(#linear-gradient-230);}.cls-215{fill:url(#linear-gradient-231);}.cls-216{fill:url(#linear-gradient-232);}.cls-217{fill:url(#linear-gradient-233);}.cls-218{fill:url(#linear-gradient-234);}.cls-219{fill:url(#linear-gradient-235);}.cls-220{fill:url(#linear-gradient-236);}.cls-221{fill:url(#linear-gradient-237);}.cls-222{fill:url(#linear-gradient-238);}.cls-223{fill:url(#linear-gradient-239);}.cls-224{fill:url(#linear-gradient-240);}.cls-225{fill:url(#linear-gradient-241);}.cls-226{opacity:0.49;}.cls-227{fill:url(#linear-gradient-242);}.cls-228{fill:url(#linear-gradient-243);}.cls-229{fill:url(#linear-gradient-244);}.cls-230{fill:url(#linear-gradient-245);}.cls-231{fill:url(#linear-gradient-246);}.cls-232{fill:url(#linear-gradient-247);}.cls-233{fill:url(#linear-gradient-248);}.cls-234{fill:url(#linear-gradient-249);}.cls-235{fill:url(#linear-gradient-250);}.cls-236{fill:url(#linear-gradient-251);}.cls-237{fill:url(#linear-gradient-252);}.cls-238{fill:url(#linear-gradient-253);}.cls-239{fill:url(#linear-gradient-254);}.cls-240{fill:url(#linear-gradient-255);}.cls-241{fill:url(#linear-gradient-256);}.cls-242{fill:url(#linear-gradient-257);}.cls-243{fill:url(#linear-gradient-258);}.cls-244{fill:url(#linear-gradient-259);}.cls-245{fill:url(#linear-gradient-260);}.cls-246{fill:url(#linear-gradient-261);}.cls-247{fill:url(#linear-gradient-262);}.cls-248{fill:url(#linear-gradient-263);}.cls-249{fill:url(#linear-gradient-264);}.cls-250{fill:url(#linear-gradient-265);}.cls-251{fill:url(#linear-gradient-266);}.cls-252{fill:url(#linear-gradient-267);}.cls-253{fill:url(#linear-gradient-268);}.cls-254{fill:url(#linear-gradient-269);}.cls-255{fill:url(#linear-gradient-270);}.cls-256{fill:url(#linear-gradient-271);}.cls-257{fill:url(#linear-gradient-272);}.cls-258{fill:url(#linear-gradient-273);}.cls-259{fill:url(#linear-gradient-274);}.cls-260{fill:url(#linear-gradient-275);}.cls-261{fill:url(#linear-gradient-276);}.cls-262{fill:url(#linear-gradient-277);}.cls-263{fill:url(#linear-gradient-278);}.cls-264{fill:url(#linear-gradient-279);}.cls-265{fill:url(#linear-gradient-280);}.cls-266{fill:url(#linear-gradient-281);}.cls-267{fill:url(#linear-gradient-282);}.cls-268{fill:url(#linear-gradient-283);}.cls-269{fill:url(#linear-gradient-284);}.cls-270{fill:url(#linear-gradient-285);}.cls-271{fill:url(#linear-gradient-286);}.cls-272{fill:url(#linear-gradient-287);}.cls-273{fill:url(#linear-gradient-288);}.cls-274{fill:url(#linear-gradient-289);}.cls-275{fill:url(#linear-gradient-290);}.cls-276{fill:url(#linear-gradient-291);}.cls-277,.cls-278,.cls-284,.cls-285{opacity:0.14;}.cls-277{fill:url(#linear-gradient-292);}.cls-278{fill:url(#linear-gradient-293);}.cls-279{fill:url(#linear-gradient-294);}.cls-280{fill:url(#linear-gradient-295);}.cls-281{fill:url(#linear-gradient-296);}.cls-282{fill:url(#linear-gradient-297);}.cls-283{fill:url(#linear-gradient-298);}.cls-284{fill:url(#linear-gradient-299);}.cls-285{fill:url(#linear-gradient-300);}.cls-286{fill:url(#linear-gradient-301);}.cls-287{fill:#101212;}</style><linearGradient id="linear-gradient" x1="676.2" y1="1308.05" x2="614.39" y2="2519.4" gradientUnits="userSpaceOnUse"><stop offset="0" stop-color="#f1f1f2" stop-opacity="0"/><stop offset="1" stop-color="#e5c280"/></linearGradient><linearGradient id="linear-gradient-2" x1="552.54" y1="2056.37" x2="797.69" y2="1014.49" gradientUnits="userSpaceOnUse"><stop offset="0" stop-color="#f1f1f2"/><stop offset="1" stop-color="#5e5e5e"/></linearGradient><linearGradient id="linear-gradient-3" x1="539.84" y1="469.9" x2="427.23" y2="2677.07" gradientTransform="translate(161.98 -970.19)" gradientUnits="userSpaceOnUse"><stop offset="0" stop-color="#f1f1f2" stop-opacity="0"/><stop offset="0.12" stop-color="#e6ebed" stop-opacity="0.07"/><stop offset="0.34" stop-color="#c8dcde" stop-opacity="0.25"/><stop offset="0.62" stop-color="#98c3c7" stop-opacity="0.54"/><stop offset="0.95" stop-color="#57a0a8" stop-opacity="0.94"/><stop offset="1" stop-color="#4d9ba3"/></linearGradient><linearGradient id="linear-gradient-4" x1="664.23" y1="1774.37" x2="623.05" y2="2433.37" xlink:href="#linear-gradient-2"/><linearGradient id="linear-gradient-5" x1="883.58" y1="1947.32" x2="900.06" y2="2795.78" gradientUnits="userSpaceOnUse"><stop offset="0" stop-color="#f1f1f2"/><stop offset="0.53" stop-color="#4c5d5f"/><stop offset="1" stop-color="#5e5e5e"/></linearGradient><linearGradient id="linear-gradient-6" x1="883.58" y1="1947.32" x2="900.06" y2="2795.78" xlink:href="#linear-gradient-5"/><linearGradient id="linear-gradient-7" x1="883.58" y1="1947.32" x2="900.06" y2="2795.78" xlink:href="#linear-gradient-5"/><linearGradient id="linear-gradient-8" x1="1189.3" y1="1941.38" x2="1205.78" y2="2789.85" xlink:href="#linear-gradient-5"/><linearGradient id="linear-gradient-9" x1="1183.69" y1="1941.49" x2="1200.16" y2="2789.96" xlink:href="#linear-gradient-5"/><linearGradient id="linear-gradient-10" x1="1196.02" y1="1941.25" x2="1212.5" y2="2789.72" xlink:href="#linear-gradient-5"/><linearGradient id="linear-gradient-11" x1="956.76" y1="1945.9" x2="973.24" y2="2794.36" xlink:href="#linear-gradient-5"/><linearGradient id="linear-gradient-12" x1="1038.96" y1="1944.3" x2="1055.43" y2="2792.76" xlink:href="#linear-gradient-5"/><linearGradient id="linear-gradient-13" x1="898.34" y1="1947.03" x2="914.82" y2="2795.5" xlink:href="#linear-gradient-5"/><linearGradient id="linear-gradient-14" x1="951.99" y1="1945.99" x2="968.46" y2="2794.46" xlink:href="#linear-gradient-5"/><linearGradient id="linear-gradient-15" x1="744.72" y1="1950.02" x2="761.2" y2="2798.48" xlink:href="#linear-gradient-5"/><linearGradient id="linear-gradient-16" x1="684.94" y1="1951.17" x2="701.42" y2="2799.64" xlink:href="#linear-gradient-5"/><linearGradient id="linear-gradient-17" x1="651.16" y1="1951.83" x2="667.63" y2="2800.3" xlink:href="#linear-gradient-5"/><linearGradient id="linear-gradient-18" x1="592.39" y1="1952.97" x2="608.86" y2="2801.44" xlink:href="#linear-gradient-5"/><linearGradient id="linear-gradient-19" x1="480.37" y1="1955.15" x2="496.84" y2="2803.61" xlink:href="#linear-gradient-5"/><linearGradient id="linear-gradient-20" x1="407.24" y1="1956.57" x2="423.71" y2="2805.03" xlink:href="#linear-gradient-5"/><linearGradient id="linear-gradient-21" x1="379.85" y1="1957.1" x2="396.33" y2="2805.57" xlink:href="#linear-gradient-5"/><linearGradient id="linear-gradient-22" x1="241.4" y1="1959.79" x2="257.87" y2="2808.26" xlink:href="#linear-gradient-5"/><linearGradient id="linear-gradient-23" x1="96.01" y1="1962.61" x2="112.48" y2="2811.08" xlink:href="#linear-gradient-5"/><linearGradient id="linear-gradient-24" x1="46.51" y1="1963.57" x2="62.99" y2="2812.04" xlink:href="#linear-gradient-5"/><linearGradient id="linear-gradient-25" x1="-25.46" y1="1964.97" x2="-8.98" y2="2813.44" xlink:href="#linear-gradient-5"/><linearGradient id="linear-gradient-26" x1="148.44" y1="1961.59" x2="164.92" y2="2810.06" xlink:href="#linear-gradient-5"/><linearGradient id="linear-gradient-27" x1="117.1" y1="1962.2" x2="133.57" y2="2810.67" xlink:href="#linear-gradient-5"/><linearGradient id="linear-gradient-28" x1="210.08" y1="1960.4" x2="226.55" y2="2808.86" xlink:href="#linear-gradient-5"/><linearGradient id="linear-gradient-29" x1="259.21" y1="1959.44" x2="275.68" y2="2807.91" xlink:href="#linear-gradient-5"/><linearGradient id="linear-gradient-30" x1="254.24" y1="1959.54" x2="270.72" y2="2808" xlink:href="#linear-gradient-5"/><linearGradient id="linear-gradient-31" x1="324.91" y1="1958.17" x2="341.38" y2="2806.63" xlink:href="#linear-gradient-5"/><linearGradient id="linear-gradient-32" x1="269.49" y1="1959.24" x2="285.96" y2="2807.71" xlink:href="#linear-gradient-5"/><linearGradient id="linear-gradient-33" x1="107.96" y1="1962.38" x2="124.44" y2="2810.84" xlink:href="#linear-gradient-5"/><linearGradient id="linear-gradient-34" x1="149.95" y1="1961.57" x2="166.43" y2="2810.03" xlink:href="#linear-gradient-5"/><linearGradient id="linear-gradient-35" x1="324.91" y1="1958.17" x2="341.38" y2="2806.63" xlink:href="#linear-gradient-5"/><linearGradient id="linear-gradient-36" x1="608.95" y1="1952.65" x2="625.43" y2="2801.11" xlink:href="#linear-gradient-5"/><linearGradient id="linear-gradient-37" x1="353.9" y1="1957.61" x2="370.38" y2="2806.07" xlink:href="#linear-gradient-5"/><linearGradient id="linear-gradient-38" x1="402.84" y1="1956.66" x2="419.32" y2="2805.12" xlink:href="#linear-gradient-5"/><linearGradient id="linear-gradient-39" x1="305.8" y1="1958.54" x2="322.28" y2="2807.01" xlink:href="#linear-gradient-5"/><linearGradient id="linear-gradient-40" x1="266.48" y1="1959.3" x2="282.95" y2="2807.77" xlink:href="#linear-gradient-5"/><linearGradient id="linear-gradient-41" x1="504.28" y1="1954.69" x2="520.75" y2="2803.15" xlink:href="#linear-gradient-5"/><linearGradient id="linear-gradient-42" x1="484.97" y1="1955.06" x2="501.44" y2="2803.52" xlink:href="#linear-gradient-5"/><linearGradient id="linear-gradient-43" x1="684.22" y1="1951.19" x2="700.69" y2="2799.66" xlink:href="#linear-gradient-5"/><linearGradient id="linear-gradient-44" x1="678.69" y1="1951.3" x2="695.17" y2="2799.76" xlink:href="#linear-gradient-5"/><linearGradient id="linear-gradient-45" x1="684.22" y1="1951.19" x2="700.69" y2="2799.65" xlink:href="#linear-gradient-5"/><linearGradient id="linear-gradient-46" x1="741.4" y1="1950.08" x2="757.88" y2="2798.54" xlink:href="#linear-gradient-5"/><linearGradient id="linear-gradient-47" x1="917.88" y1="1946.66" x2="934.36" y2="2795.12" xlink:href="#linear-gradient-5"/><linearGradient id="linear-gradient-48" x1="936.68" y1="1946.29" x2="953.16" y2="2794.75" xlink:href="#linear-gradient-5"/><linearGradient id="linear-gradient-49" x1="936.68" y1="1946.29" x2="953.16" y2="2794.75" xlink:href="#linear-gradient-5"/><linearGradient id="linear-gradient-50" x1="1174.17" y1="1941.68" x2="1190.64" y2="2790.14" xlink:href="#linear-gradient-5"/><linearGradient id="linear-gradient-51" x1="1182.55" y1="1941.52" x2="1199.02" y2="2789.98" xlink:href="#linear-gradient-5"/><linearGradient id="linear-gradient-52" x1="1183.91" y1="1941.49" x2="1200.38" y2="2789.95" xlink:href="#linear-gradient-5"/><linearGradient id="linear-gradient-53" x1="491.3" y1="1954.94" x2="507.77" y2="2803.4" xlink:href="#linear-gradient-5"/><linearGradient id="linear-gradient-54" x1="491.3" y1="1954.94" x2="507.77" y2="2803.4" xlink:href="#linear-gradient-5"/><linearGradient id="linear-gradient-55" x1="634.28" y1="1952.16" x2="650.75" y2="2800.63" xlink:href="#linear-gradient-5"/><linearGradient id="linear-gradient-56" x1="634.28" y1="1952.16" x2="650.75" y2="2800.62" xlink:href="#linear-gradient-5"/><linearGradient id="linear-gradient-57" x1="709.41" y1="1950.7" x2="725.88" y2="2799.17" xlink:href="#linear-gradient-5"/><linearGradient id="linear-gradient-58" x1="822.27" y1="1948.51" x2="838.75" y2="2796.97" xlink:href="#linear-gradient-5"/><linearGradient id="linear-gradient-59" x1="917.88" y1="1946.65" x2="934.36" y2="2795.12" xlink:href="#linear-gradient-5"/><linearGradient id="linear-gradient-60" x1="1026.35" y1="1944.55" x2="1042.82" y2="2793.01" xlink:href="#linear-gradient-5"/><linearGradient id="linear-gradient-61" x1="983.43" y1="1945.38" x2="999.9" y2="2793.84" xlink:href="#linear-gradient-5"/><linearGradient id="linear-gradient-62" x1="891.08" y1="1947.17" x2="907.56" y2="2795.64" xlink:href="#linear-gradient-5"/><linearGradient id="linear-gradient-63" x1="939.7" y1="1946.23" x2="956.18" y2="2794.7" xlink:href="#linear-gradient-5"/><linearGradient id="linear-gradient-64" x1="1125.54" y1="1942.62" x2="1142.02" y2="2791.09" xlink:href="#linear-gradient-5"/><linearGradient id="linear-gradient-65" x1="1125.54" y1="1942.62" x2="1142.02" y2="2791.08" xlink:href="#linear-gradient-5"/><linearGradient id="linear-gradient-66" x1="1161.64" y1="1941.92" x2="1178.12" y2="2790.38" xlink:href="#linear-gradient-5"/><linearGradient id="linear-gradient-67" x1="-310.31" y1="2174.76" x2="64.5" y2="2174.76" xlink:href="#linear-gradient-2"/><linearGradient id="linear-gradient-68" x1="19.19" y1="2176.28" x2="126.74" y2="2176.28" xlink:href="#linear-gradient-2"/><linearGradient id="linear-gradient-69" x1="64.5" y1="2125.34" x2="266.32" y2="2125.34" xlink:href="#linear-gradient-2"/><linearGradient id="linear-gradient-70" x1="64.5" y1="2176.28" x2="192.18" y2="2176.28" xlink:href="#linear-gradient-2"/><linearGradient id="linear-gradient-71" x1="914.63" y1="2259.86" x2="1021.72" y2="1460.82" gradientUnits="userSpaceOnUse"><stop offset="0" stop-color="#f1f1f2" stop-opacity="0"/><stop offset="1" stop-color="#d2b82a"/></linearGradient><linearGradient id="linear-gradient-72" x1="914.63" y1="2259.86" x2="1021.72" y2="1460.83" xlink:href="#linear-gradient-71"/><linearGradient id="linear-gradient-73" x1="914.63" y1="2259.86" x2="1021.72" y2="1460.83" xlink:href="#linear-gradient-71"/><linearGradient id="linear-gradient-74" x1="1203.21" y1="2298.54" x2="1310.3" y2="1499.5" xlink:href="#linear-gradient-71"/><linearGradient id="linear-gradient-75" x1="1200.65" y1="2298.2" x2="1307.74" y2="1499.16" xlink:href="#linear-gradient-71"/><linearGradient id="linear-gradient-76" x1="1222.51" y1="2301.13" x2="1329.59" y2="1502.09" xlink:href="#linear-gradient-71"/><linearGradient id="linear-gradient-77" x1="990.33" y1="2270.01" x2="1097.41" y2="1470.97" xlink:href="#linear-gradient-71"/><linearGradient id="linear-gradient-78" x1="1058.74" y1="2279.18" x2="1165.83" y2="1480.14" xlink:href="#linear-gradient-71"/><linearGradient id="linear-gradient-79" x1="918.35" y1="2260.36" x2="1025.43" y2="1461.32" xlink:href="#linear-gradient-71"/><linearGradient id="linear-gradient-80" x1="981.87" y1="2268.88" x2="1088.96" y2="1469.84" xlink:href="#linear-gradient-71"/><linearGradient id="linear-gradient-81" x1="781.95" y1="2242.08" x2="889.04" y2="1443.04" xlink:href="#linear-gradient-71"/><linearGradient id="linear-gradient-82" x1="710.63" y1="2232.52" x2="817.72" y2="1433.48" xlink:href="#linear-gradient-71"/><linearGradient id="linear-gradient-83" x1="680.46" y1="2228.48" x2="787.55" y2="1429.44" xlink:href="#linear-gradient-71"/><linearGradient id="linear-gradient-84" x1="632.25" y1="2222.02" x2="739.34" y2="1422.98" xlink:href="#linear-gradient-71"/><linearGradient id="linear-gradient-85" x1="515.57" y1="2206.38" x2="622.66" y2="1407.34" xlink:href="#linear-gradient-71"/><linearGradient id="linear-gradient-86" x1="439.3" y1="2196.16" x2="546.38" y2="1397.12" xlink:href="#linear-gradient-71"/><linearGradient id="linear-gradient-87" x1="414.55" y1="2192.84" x2="521.63" y2="1393.8" xlink:href="#linear-gradient-71"/><linearGradient id="linear-gradient-88" x1="287.32" y1="2175.79" x2="394.41" y2="1376.76" xlink:href="#linear-gradient-71"/><linearGradient id="linear-gradient-89" x1="114.47" y1="2152.63" x2="221.56" y2="1353.59" xlink:href="#linear-gradient-71"/><linearGradient id="linear-gradient-90" x1="74.51" y1="2147.27" x2="181.6" y2="1348.23" xlink:href="#linear-gradient-71"/><linearGradient id="linear-gradient-91" x1="17.54" y1="2139.64" x2="124.63" y2="1340.6" xlink:href="#linear-gradient-71"/><linearGradient id="linear-gradient-92" x1="184.03" y1="2161.95" x2="291.12" y2="1362.91" xlink:href="#linear-gradient-71"/><linearGradient id="linear-gradient-93" x1="143.16" y1="2156.47" x2="250.24" y2="1357.43" xlink:href="#linear-gradient-71"/><linearGradient id="linear-gradient-94" x1="244.14" y1="2170" x2="351.23" y2="1370.96" xlink:href="#linear-gradient-71"/><linearGradient id="linear-gradient-95" x1="260.12" y1="2172.15" x2="367.2" y2="1373.11" xlink:href="#linear-gradient-71"/><linearGradient id="linear-gradient-96" x1="260.12" y1="2172.15" x2="367.2" y2="1373.11" xlink:href="#linear-gradient-71"/><linearGradient id="linear-gradient-97" x1="340.83" y1="2182.96" x2="447.92" y2="1383.92" xlink:href="#linear-gradient-71"/><linearGradient id="linear-gradient-98" x1="297.66" y1="2177.18" x2="404.74" y2="1378.14" xlink:href="#linear-gradient-71"/><linearGradient id="linear-gradient-99" x1="143.16" y1="2156.47" x2="250.24" y2="1357.43" xlink:href="#linear-gradient-71"/><linearGradient id="linear-gradient-100" x1="167.2" y1="2159.69" x2="274.29" y2="1360.66" xlink:href="#linear-gradient-71"/><linearGradient id="linear-gradient-101" x1="340.83" y1="2182.96" x2="447.92" y2="1383.93" xlink:href="#linear-gradient-71"/><linearGradient id="linear-gradient-102" x1="618.83" y1="2220.22" x2="725.91" y2="1421.19" xlink:href="#linear-gradient-71"/><linearGradient id="linear-gradient-103" x1="377.11" y1="2187.83" x2="484.2" y2="1388.79" xlink:href="#linear-gradient-71"/><linearGradient id="linear-gradient-104" x1="434.97" y1="2195.58" x2="542.06" y2="1396.54" xlink:href="#linear-gradient-71"/><linearGradient id="linear-gradient-105" x1="341.03" y1="2182.99" x2="448.12" y2="1383.95" xlink:href="#linear-gradient-71"/><linearGradient id="linear-gradient-106" x1="285.15" y1="2175.5" x2="392.23" y2="1376.46" xlink:href="#linear-gradient-71"/><linearGradient id="linear-gradient-107" x1="533.24" y1="2208.75" x2="640.33" y2="1409.71" xlink:href="#linear-gradient-71"/><linearGradient id="linear-gradient-108" x1="498.99" y1="2204.16" x2="606.07" y2="1405.12" xlink:href="#linear-gradient-71"/><linearGradient id="linear-gradient-109" x1="706.37" y1="2231.95" x2="813.45" y2="1432.91" xlink:href="#linear-gradient-71"/><linearGradient id="linear-gradient-110" x1="686.14" y1="2229.24" x2="793.23" y2="1430.21" xlink:href="#linear-gradient-71"/><linearGradient id="linear-gradient-111" x1="706.37" y1="2231.95" x2="813.45" y2="1432.92" xlink:href="#linear-gradient-71"/><linearGradient id="linear-gradient-112" x1="764.46" y1="2239.74" x2="871.55" y2="1440.7" xlink:href="#linear-gradient-71"/><linearGradient id="linear-gradient-113" x1="913.11" y1="2259.66" x2="1020.19" y2="1460.62" xlink:href="#linear-gradient-71"/><linearGradient id="linear-gradient-114" x1="949.59" y1="2264.55" x2="1056.67" y2="1465.51" xlink:href="#linear-gradient-71"/><linearGradient id="linear-gradient-115" x1="949.59" y1="2264.55" x2="1056.67" y2="1465.51" xlink:href="#linear-gradient-71"/><linearGradient id="linear-gradient-116" x1="1164.96" y1="2293.41" x2="1272.05" y2="1494.38" xlink:href="#linear-gradient-71"/><linearGradient id="linear-gradient-117" x1="1191.33" y1="2296.95" x2="1298.41" y2="1497.91" xlink:href="#linear-gradient-71"/><linearGradient id="linear-gradient-118" x1="1191.33" y1="2296.95" x2="1298.41" y2="1497.91" xlink:href="#linear-gradient-71"/><linearGradient id="linear-gradient-119" x1="470.65" y1="2200.36" x2="577.74" y2="1401.32" xlink:href="#linear-gradient-71"/><linearGradient id="linear-gradient-120" x1="470.65" y1="2200.36" x2="577.74" y2="1401.32" xlink:href="#linear-gradient-71"/><linearGradient id="linear-gradient-121" x1="640.49" y1="2223.12" x2="747.58" y2="1424.09" xlink:href="#linear-gradient-71"/><linearGradient id="linear-gradient-122" x1="640.49" y1="2223.12" x2="747.58" y2="1424.09" xlink:href="#linear-gradient-71"/><linearGradient id="linear-gradient-123" x1="669.81" y1="2227.05" x2="776.9" y2="1428.02" xlink:href="#linear-gradient-71"/><linearGradient id="linear-gradient-124" x1="783.49" y1="2242.29" x2="890.58" y2="1443.25" xlink:href="#linear-gradient-71"/><linearGradient id="linear-gradient-125" x1="913.11" y1="2259.66" x2="1020.19" y2="1460.62" xlink:href="#linear-gradient-71"/><linearGradient id="linear-gradient-126" x1="976.59" y1="2268.17" x2="1083.68" y2="1469.13" xlink:href="#linear-gradient-71"/><linearGradient id="linear-gradient-127" x1="950.72" y1="2264.7" x2="1057.81" y2="1465.66" xlink:href="#linear-gradient-71"/><linearGradient id="linear-gradient-128" x1="870.49" y1="2253.95" x2="977.58" y2="1454.91" xlink:href="#linear-gradient-71"/><linearGradient id="linear-gradient-129" x1="926.26" y1="2261.42" x2="1033.35" y2="1462.38" xlink:href="#linear-gradient-71"/><linearGradient id="linear-gradient-130" x1="1109.19" y1="2285.94" x2="1216.28" y2="1486.9" xlink:href="#linear-gradient-71"/><linearGradient id="linear-gradient-131" x1="1109.19" y1="2285.94" x2="1216.28" y2="1486.9" xlink:href="#linear-gradient-71"/><linearGradient id="linear-gradient-132" x1="1103.34" y1="2285.15" x2="1210.43" y2="1486.12" xlink:href="#linear-gradient-71"/><linearGradient id="linear-gradient-134" x1="1082.68" y1="2560.79" x2="1193.88" y2="2739.94" xlink:href="#linear-gradient-71"/><linearGradient id="linear-gradient-195" x1="33.56" y1="1882.71" x2="323.92" y2="2284.27" gradientUnits="userSpaceOnUse"><stop offset="0" stop-color="#f1f1f2" stop-opacity="0"/><stop offset="0.53" stop-color="#6e4040"/><stop offset="1" stop-color="#333"/></linearGradient><linearGradient id="linear-gradient-196" x1="-125.89" y1="1998" x2="164.46" y2="2399.56" xlink:href="#linear-gradient-195"/><linearGradient id="linear-gradient-197" x1="-117.27" y1="1991.77" x2="173.08" y2="2393.33" xlink:href="#linear-gradient-195"/><linearGradient id="linear-gradient-198" x1="-57" y1="1948.19" x2="233.35" y2="2349.75" xlink:href="#linear-gradient-195"/><linearGradient id="linear-gradient-199" x1="36.95" y1="1880.26" x2="327.3" y2="2281.82" xlink:href="#linear-gradient-195"/><linearGradient id="linear-gradient-200" x1="100.39" y1="1834.38" x2="390.75" y2="2235.94" xlink:href="#linear-gradient-195"/><linearGradient id="linear-gradient-201" x1="-249.65" y1="2087.49" x2="40.71" y2="2489.04" xlink:href="#linear-gradient-195"/><linearGradient id="linear-gradient-202" x1="-177.25" y1="2035.13" x2="113.11" y2="2436.69" xlink:href="#linear-gradient-195"/><linearGradient id="linear-gradient-203" x1="-282.66" y1="2111.36" x2="7.7" y2="2512.91" xlink:href="#linear-gradient-195"/><linearGradient id="linear-gradient-204" x1="-282.66" y1="2111.36" x2="7.7" y2="2512.91" xlink:href="#linear-gradient-195"/><linearGradient id="linear-gradient-205" x1="-177.82" y1="2035.55" x2="112.54" y2="2437.11" xlink:href="#linear-gradient-195"/><linearGradient id="linear-gradient-206" x1="-97.25" y1="1977.29" x2="193.11" y2="2378.85" xlink:href="#linear-gradient-195"/><linearGradient id="linear-gradient-207" x1="-57" y1="1948.19" x2="233.35" y2="2349.75" xlink:href="#linear-gradient-195"/><linearGradient id="linear-gradient-208" x1="-202.53" y1="2053.41" x2="87.83" y2="2454.97" xlink:href="#linear-gradient-195"/><linearGradient id="linear-gradient-209" x1="-239.38" y1="2080.06" x2="50.98" y2="2481.62" xlink:href="#linear-gradient-195"/><linearGradient id="linear-gradient-210" x1="-146.79" y1="2013.11" x2="143.57" y2="2414.67" xlink:href="#linear-gradient-195"/><linearGradient id="linear-gradient-211" x1="-63.36" y1="1952.79" x2="227" y2="2354.34" xlink:href="#linear-gradient-195"/><linearGradient id="linear-gradient-212" x1="-84.17" y1="1967.83" x2="206.19" y2="2369.39" xlink:href="#linear-gradient-195"/><linearGradient id="linear-gradient-213" x1="62.33" y1="1861.9" x2="352.69" y2="2263.46" xlink:href="#linear-gradient-195"/><linearGradient id="linear-gradient-214" x1="-54.95" y1="1946.71" x2="235.41" y2="2348.26" xlink:href="#linear-gradient-195"/><linearGradient id="linear-gradient-215" x1="177.42" y1="1778.68" x2="467.78" y2="2180.24" xlink:href="#linear-gradient-195"/><linearGradient id="linear-gradient-216" x1="-54.95" y1="1946.71" x2="235.41" y2="2348.26" xlink:href="#linear-gradient-195"/><linearGradient id="linear-gradient-217" x1="-2.4" y1="1908.71" x2="287.96" y2="2310.27" xlink:href="#linear-gradient-195"/><linearGradient id="linear-gradient-218" x1="-21.16" y1="1922.27" x2="269.2" y2="2323.83" xlink:href="#linear-gradient-195"/><linearGradient id="linear-gradient-219" x1="249.71" y1="1726.41" x2="540.07" y2="2127.97" xlink:href="#linear-gradient-195"/><linearGradient id="linear-gradient-220" x1="91.54" y1="1840.78" x2="381.9" y2="2242.34" xlink:href="#linear-gradient-195"/><linearGradient id="linear-gradient-221" x1="94.09" y1="1838.94" x2="384.45" y2="2240.49" xlink:href="#linear-gradient-195"/><linearGradient id="linear-gradient-222" x1="159.18" y1="1791.87" x2="449.54" y2="2193.43" xlink:href="#linear-gradient-195"/><linearGradient id="linear-gradient-223" x1="280.96" y1="1703.82" x2="571.32" y2="2105.38" xlink:href="#linear-gradient-195"/><linearGradient id="linear-gradient-224" x1="144.83" y1="1802.25" x2="435.19" y2="2203.81" xlink:href="#linear-gradient-195"/><linearGradient id="linear-gradient-225" x1="301.06" y1="1689.28" x2="591.42" y2="2090.84" xlink:href="#linear-gradient-195"/><linearGradient id="linear-gradient-226" x1="144.83" y1="1802.25" x2="435.19" y2="2203.81" xlink:href="#linear-gradient-195"/><linearGradient id="linear-gradient-227" x1="361.08" y1="1645.88" x2="651.44" y2="2047.44" xlink:href="#linear-gradient-195"/><linearGradient id="linear-gradient-228" x1="361.08" y1="1645.88" x2="651.44" y2="2047.44" xlink:href="#linear-gradient-195"/><linearGradient id="linear-gradient-229" x1="441.39" y1="1587.81" x2="731.75" y2="1989.37" xlink:href="#linear-gradient-195"/><linearGradient id="linear-gradient-230" x1="487.37" y1="1554.56" x2="777.73" y2="1956.12" xlink:href="#linear-gradient-195"/><linearGradient id="linear-gradient-231" x1="487.37" y1="1554.56" x2="777.73" y2="1956.12" xlink:href="#linear-gradient-195"/><linearGradient id="linear-gradient-232" x1="22.48" y1="1890.72" x2="312.84" y2="2292.28" xlink:href="#linear-gradient-195"/><linearGradient id="linear-gradient-233" x1="280.96" y1="1703.82" x2="571.32" y2="2105.37" xlink:href="#linear-gradient-195"/><linearGradient id="linear-gradient-234" x1="365.06" y1="1643" x2="655.42" y2="2044.56" xlink:href="#linear-gradient-195"/><linearGradient id="linear-gradient-235" x1="-146.79" y1="2013.11" x2="143.57" y2="2414.67" xlink:href="#linear-gradient-195"/><linearGradient id="linear-gradient-236" x1="-107.5" y1="1984.7" x2="182.86" y2="2386.26" xlink:href="#linear-gradient-195"/><linearGradient id="linear-gradient-237" x1="-194.54" y1="2047.64" x2="95.81" y2="2449.2" xlink:href="#linear-gradient-195"/><linearGradient id="linear-gradient-238" x1="-129.51" y1="2000.62" x2="160.85" y2="2402.17" xlink:href="#linear-gradient-195"/><linearGradient id="linear-gradient-239" x1="441.39" y1="1587.81" x2="731.75" y2="1989.37" xlink:href="#linear-gradient-195"/><linearGradient id="linear-gradient-240" x1="176.39" y1="1779.43" x2="466.75" y2="2180.98" xlink:href="#linear-gradient-195"/><linearGradient id="linear-gradient-241" x1="20.93" y1="1891.84" x2="311.29" y2="2293.4" xlink:href="#linear-gradient-195"/><linearGradient id="linear-gradient-242" x1="363.49" y1="2454.6" x2="567.36" y2="1880.06" xlink:href="#linear-gradient-71"/><linearGradient id="linear-gradient-243" x1="-17.89" y1="2319.27" x2="185.98" y2="1744.73" xlink:href="#linear-gradient-71"/><linearGradient id="linear-gradient-244" x1="3.95" y1="2327.02" x2="207.82" y2="1752.48" xlink:href="#linear-gradient-71"/><linearGradient id="linear-gradient-245" x1="138.73" y1="2374.85" x2="342.6" y2="1800.31" xlink:href="#linear-gradient-71"/><linearGradient id="linear-gradient-246" x1="278.81" y1="2424.55" x2="482.68" y2="1850.01" xlink:href="#linear-gradient-71"/><linearGradient id="linear-gradient-247" x1="385.33" y1="2462.35" x2="589.2" y2="1887.81" xlink:href="#linear-gradient-71"/><linearGradient id="linear-gradient-248" x1="-107.86" y1="2287.35" x2="96.01" y2="1712.81" xlink:href="#linear-gradient-71"/><linearGradient id="linear-gradient-249" x1="-23.9" y1="2317.14" x2="179.97" y2="1742.6" xlink:href="#linear-gradient-71"/><linearGradient id="linear-gradient-250" x1="-95.45" y1="2291.75" x2="108.42" y2="1717.21" xlink:href="#linear-gradient-71"/><linearGradient id="linear-gradient-251" x1="-95.45" y1="2291.75" x2="108.42" y2="1717.21" xlink:href="#linear-gradient-71"/><linearGradient id="linear-gradient-252" x1="-24.1" y1="2317.07" x2="179.76" y2="1742.53" xlink:href="#linear-gradient-71"/><linearGradient id="linear-gradient-253" x1="112.27" y1="2365.46" x2="316.14" y2="1790.92" xlink:href="#linear-gradient-71"/><linearGradient id="linear-gradient-254" x1="138.73" y1="2374.85" x2="342.6" y2="1800.31" xlink:href="#linear-gradient-71"/><linearGradient id="linear-gradient-255" x1="40.74" y1="2340.07" x2="244.6" y2="1765.54" xlink:href="#linear-gradient-71"/><linearGradient id="linear-gradient-256" x1="63.09" y1="2348.01" x2="266.96" y2="1773.47" xlink:href="#linear-gradient-71"/><linearGradient id="linear-gradient-257" x1="104.92" y1="2362.85" x2="308.79" y2="1788.31" xlink:href="#linear-gradient-71"/><linearGradient id="linear-gradient-258" x1="169.8" y1="2385.87" x2="373.66" y2="1811.33" xlink:href="#linear-gradient-71"/><linearGradient id="linear-gradient-259" x1="179.79" y1="2389.42" x2="383.66" y2="1814.88" xlink:href="#linear-gradient-71"/><linearGradient id="linear-gradient-260" x1="328.1" y1="2442.04" x2="531.97" y2="1867.5" xlink:href="#linear-gradient-71"/><linearGradient id="linear-gradient-261" x1="254.65" y1="2415.98" x2="458.52" y2="1841.44" xlink:href="#linear-gradient-71"/><linearGradient id="linear-gradient-262" x1="505.82" y1="2505.1" x2="709.69" y2="1930.57" xlink:href="#linear-gradient-71"/><linearGradient id="linear-gradient-263" x1="261.81" y1="2418.52" x2="465.68" y2="1843.98" xlink:href="#linear-gradient-71"/><linearGradient id="linear-gradient-264" x1="277.87" y1="2424.22" x2="481.73" y2="1849.68" xlink:href="#linear-gradient-71"/><linearGradient id="linear-gradient-265" x1="307.52" y1="2434.74" x2="511.39" y2="1860.2" xlink:href="#linear-gradient-71"/><linearGradient id="linear-gradient-266" x1="606.59" y1="2540.86" x2="810.46" y2="1966.32" xlink:href="#linear-gradient-71"/><linearGradient id="linear-gradient-267" x1="389.14" y1="2463.7" x2="593.01" y2="1889.17" xlink:href="#linear-gradient-71"/><linearGradient id="linear-gradient-268" x1="442.49" y1="2482.63" x2="646.36" y2="1908.09" xlink:href="#linear-gradient-71"/><linearGradient id="linear-gradient-269" x1="505.82" y1="2505.1" x2="709.69" y2="1930.57" xlink:href="#linear-gradient-71"/><linearGradient id="linear-gradient-270" x1="683.32" y1="2568.09" x2="887.19" y2="1993.55" xlink:href="#linear-gradient-71"/><linearGradient id="linear-gradient-271" x1="517.24" y1="2509.16" x2="721.11" y2="1934.62" xlink:href="#linear-gradient-71"/><linearGradient id="linear-gradient-272" x1="740.77" y1="2588.47" x2="944.64" y2="2013.94" xlink:href="#linear-gradient-71"/><linearGradient id="linear-gradient-273" x1="580.05" y1="2531.44" x2="783.92" y2="1956.9" xlink:href="#linear-gradient-71"/><linearGradient id="linear-gradient-274" x1="823.6" y1="2617.87" x2="1027.47" y2="2043.33" xlink:href="#linear-gradient-71"/><linearGradient id="linear-gradient-275" x1="851.83" y1="2627.88" x2="1055.7" y2="2053.34" xlink:href="#linear-gradient-71"/><linearGradient id="linear-gradient-276" x1="935.94" y1="2657.73" x2="1139.81" y2="2083.19" xlink:href="#linear-gradient-71"/><linearGradient id="linear-gradient-277" x1="1013.95" y1="2685.41" x2="1217.82" y2="2110.87" xlink:href="#linear-gradient-71"/><linearGradient id="linear-gradient-278" x1="1018.11" y1="2686.88" x2="1221.98" y2="2112.35" xlink:href="#linear-gradient-71"/><linearGradient id="linear-gradient-279" x1="410.1" y1="2471.14" x2="613.96" y2="1896.6" xlink:href="#linear-gradient-71"/><linearGradient id="linear-gradient-280" x1="675.56" y1="2565.34" x2="879.43" y2="1990.8" xlink:href="#linear-gradient-71"/><linearGradient id="linear-gradient-281" x1="823.6" y1="2617.86" x2="1027.47" y2="2043.33" xlink:href="#linear-gradient-71"/><linearGradient id="linear-gradient-282" x1="91.11" y1="2357.95" x2="294.98" y2="1783.41" xlink:href="#linear-gradient-71"/><linearGradient id="linear-gradient-283" x1="216.09" y1="2402.29" x2="419.96" y2="1827.76" xlink:href="#linear-gradient-71"/><linearGradient id="linear-gradient-284" x1="104.92" y1="2362.85" x2="308.79" y2="1788.31" xlink:href="#linear-gradient-71"/><linearGradient id="linear-gradient-285" x1="0.19" y1="2325.68" x2="204.05" y2="1751.15" xlink:href="#linear-gradient-71"/><linearGradient id="linear-gradient-286" x1="951.76" y1="2663.34" x2="1155.63" y2="2088.8" xlink:href="#linear-gradient-71"/><linearGradient id="linear-gradient-287" x1="505.82" y1="2505.1" x2="709.69" y2="1930.57" xlink:href="#linear-gradient-71"/><linearGradient id="linear-gradient-288" x1="277.87" y1="2424.22" x2="481.73" y2="1849.68" xlink:href="#linear-gradient-71"/><linearGradient id="linear-gradient-289" x1="805.84" y1="2492.57" x2="818.19" y2="2031.27" gradientUnits="userSpaceOnUse"><stop offset="0" stop-color="#f1f1f2" stop-opacity="0"/><stop offset="0.35" stop-color="#dbdbdc" stop-opacity="0.1"/><stop offset="0.67" stop-color="#9a9899" stop-opacity="0.42"/><stop offset="0.98" stop-color="#2c2829" stop-opacity="0.96"/><stop offset="1" stop-color="#231f20"/></linearGradient><linearGradient id="linear-gradient-290" x1="451.8" y1="473.19" x2="1217.85" y2="-972.42" xlink:href="#linear-gradient-2"/><linearGradient id="linear-gradient-291" x1="446.7" y1="482.82" x2="1076.46" y2="-705.6" xlink:href="#linear-gradient-2"/><linearGradient id="linear-gradient-292" x1="175.77" y1="-614.41" x2="1264.08" y2="1691.76" xlink:href="#linear-gradient-2"/><linearGradient id="linear-gradient-293" x1="991.17" y1="-121.06" x2="1696.03" y2="1372.58" xlink:href="#linear-gradient-2"/><linearGradient id="linear-gradient-294" x1="643.21" y1="946.21" x2="634.97" y2="-610.68" xlink:href="#linear-gradient-2"/><linearGradient id="linear-gradient-295" x1="1226.67" y1="939.14" x2="1086.63" y2="90.68" xlink:href="#linear-gradient-2"/><linearGradient id="linear-gradient-296" x1="470.14" y1="1231.17" x2="791.41" y2="-498.7" xlink:href="#linear-gradient-2"/><linearGradient id="linear-gradient-297" x1="380.87" y1="1704.2" x2="857.79" y2="-863.85" xlink:href="#linear-gradient-2"/><linearGradient id="linear-gradient-298" x1="1170.14" y1="1180.2" x2="1318.41" y2="550.06" xlink:href="#linear-gradient-2"/><linearGradient id="linear-gradient-299" x1="-133.99" y1="905.93" x2="181.2" y2="-433.64" xlink:href="#linear-gradient-2"/><linearGradient id="linear-gradient-300" x1="1114.34" y1="799.13" x2="1326.07" y2="-100.71" xlink:href="#linear-gradient-2"/><linearGradient id="linear-gradient-301" x1="1147.25" y1="1666.08" x2="1365.49" y2="738.56" xlink:href="#linear-gradient-2"/></defs><title>carrotstick-fp</title><g class="cls-1"><g id="Layer_1" data-name="Layer 1"><rect class="cls-2" x="-584.08" y="1515.91" width="2451.79" height="931.84"/><rect class="cls-3" x="-582.31" y="-4.06" width="2451.79" height="2451.81"/><polygon class="cls-4" points="-585 1515.91 1866.79 1845.83 156.35 2051.2 -579.61 1968.82 -585 1515.91"/><rect class="cls-5" x="-579.61" y="-4.06" width="2446.41" height="1290.19" transform="translate(1287.18 1282.07) rotate(180)"/><g class="cls-6"><polygon class="cls-7" points="1567.84 1854.06 1419.57 1887.01 1230.11 1895.25 1073.59 1952.91 908.84 1961.15 777.04 1985.86 612.29 1994.1 455.78 1969.39 241.6 1952.91 85.09 1936.44 -38.47 1870.54 -186.75 1812.88 -376.21 1829.35 -585 1847.77 -585 2447.75 1866.79 2447.75 1866.79 1845.83 1740.83 1862.3 1567.84 1854.06"/><polygon class="cls-8" points="1567.84 1854.06 1419.57 1887.01 1230.11 1895.25 1073.59 1952.91 908.84 1961.15 777.04 1985.86 612.29 1994.1 455.78 1969.39 241.6 1952.91 85.09 1936.44 -38.47 1870.54 -186.75 1812.88 -376.21 1829.35 -585 1847.77 -585 2447.75 1866.79 2447.75 1866.79 1845.83 1740.83 1862.3 1567.84 1854.06"/><polygon class="cls-9" points="1567.84 1854.06 1419.57 1887.01 1230.11 1895.25 1073.59 1952.91 908.84 1961.15 777.04 1985.86 612.29 1994.1 455.78 1969.39 241.6 1952.91 85.09 1936.44 -38.47 1870.54 -186.75 1812.88 -376.21 1829.35 -585 1847.77 -585 1847.77 -585 2447.75 1866.79 2447.75 1866.79 1845.83 1740.83 1862.3 1567.84 1854.06"/></g><polygon class="cls-10" points="1866.79 2051.2 1782.02 2001.77 1658.46 1985.3 1534.89 1927.63 1378.38 1927.63 1254.82 1869.97 1065.36 1853.5 925.32 1902.92 727.62 1894.68 480.49 1968.82 266.32 2067.67 192.18 2183 10.95 2314.8 -87.9 2447.75 1866.79 2447.75 1866.79 2051.2"/><polygon class="cls-11" points="10.95 2314.8 -87.9 2447.75 1866.79 2447.75 1866.79 2051.2 1782.02 2001.77 1784.39 2094.77 1314.88 2229.32 1043.06 2148.5 802.12 2229.32 477.2 2229.32 266.32 2067.67 192.18 2183 10.95 2314.8"/><path class="cls-12" d="M11,2314.8-87.9,2447.75H1866.79V2051.2L1691.73,2323l-376.85,46.45-235.52-51-271.06,51-241.73-9.39s-294.88,27.16-307.67,29.19-205.11-41.54-205.11-41.54L192.18,2183Z"/><polygon class="cls-13" points="1079.36 2318.53 1304.41 2408.62 1314.88 2369.49 1079.36 2318.53"/><polygon class="cls-14" points="1079.36 2318.53 1106.54 2447.75 1304.41 2408.62 1079.36 2318.53"/><polygon class="cls-15" points="1106.54 2447.75 1304.41 2408.62 1293.95 2447.75 1106.54 2447.75"/><polygon class="cls-15" points="826.47 2447.75 1096.02 2397.75 1106.54 2447.75 826.47 2447.75"/><polygon class="cls-16" points="998.25 2333.78 1096.02 2397.75 1079.36 2318.53 998.25 2333.78"/><polygon class="cls-17" points="998.25 2333.78 826.47 2447.75 814.12 2368.39 998.25 2333.78"/><polygon class="cls-14" points="998.25 2333.78 1096.02 2397.75 826.47 2447.75 998.25 2333.78"/><polygon class="cls-16" points="814.12 2368.39 682.31 2447.75 826.47 2447.75 814.12 2368.39"/><polygon class="cls-14" points="571.81 2360.31 747.31 2408.62 814.12 2368.39 571.81 2360.31"/><polygon class="cls-15" points="571.81 2360.31 682.31 2447.75 747.31 2408.62 571.81 2360.31"/><polygon class="cls-16" points="571.81 2360.31 521.68 2447.75 682.31 2447.75 571.81 2360.31"/><polygon class="cls-15" points="406.36 2447.75 571.81 2360.31 521.68 2447.75 406.36 2447.75"/><polygon class="cls-16" points="258.9 2389.29 517.58 2388.97 571.81 2360.31 258.9 2389.29"/><polygon class="cls-14" points="258.9 2389.29 406.36 2447.75 517.58 2388.97 258.9 2389.29"/><polygon class="cls-15" points="258.9 2389.29 95.39 2447.75 406.36 2447.75 258.9 2389.29"/><polygon class="cls-18" points="10.95 2314.8 95.39 2298.22 192.18 2183 10.95 2314.8"/><polygon class="cls-17" points="10.95 2314.8 53.79 2347.75 95.39 2298.22 10.95 2314.8"/><polygon class="cls-18" points="53.79 2347.75 -87.9 2447.75 10.95 2314.8 53.79 2347.75"/><polygon class="cls-14" points="53.79 2347.75 95.39 2447.75 258.9 2389.29 53.79 2347.75"/><polygon class="cls-19" points="192.18 2183 177.63 2374.8 53.79 2347.75 192.18 2183"/><polygon class="cls-20" points="184.27 2287.26 258.9 2389.29 177.63 2374.8 184.27 2287.26"/><polygon class="cls-12" points="192.18 2183 333.68 2119.31 266.32 2067.67 192.18 2183"/><polygon class="cls-21" points="184.27 2287.26 333.68 2119.31 192.18 2183 184.27 2287.26"/><polygon class="cls-22" points="184.27 2287.26 477.2 2229.32 333.68 2119.31 184.27 2287.26"/><polygon class="cls-19" points="184.27 2287.26 369.23 2379.07 258.9 2389.29 184.27 2287.26"/><polygon class="cls-12" points="118.04 2271.55 177.63 2374.8 53.79 2347.75 118.04 2271.55"/><polygon class="cls-20" points="118.04 2271.55 184.27 2287.26 192.18 2183 118.04 2271.55"/><polygon class="cls-21" points="477.2 2229.32 306.13 2347.75 184.27 2287.26 477.2 2229.32"/><polygon class="cls-23" points="415.36 2272.13 814.12 2229.32 477.2 2229.32 415.36 2272.13"/><polygon class="cls-18" points="415.36 2272.13 369.23 2379.07 306.13 2347.75 415.36 2272.13"/><polygon class="cls-21" points="415.36 2272.13 452.69 2370.4 369.23 2379.07 415.36 2272.13"/><polygon class="cls-14" points="306.13 2347.75 258.9 2389.29 369.23 2379.07 306.13 2347.75"/><polygon class="cls-19" points="333.68 2119.31 360.74 2252.36 184.27 2287.26 333.68 2119.31"/><polygon class="cls-14" points="452.69 2370.4 566.57 2255.9 571.81 2360.31 452.69 2370.4"/><polygon class="cls-20" points="415.36 2272.13 566.57 2255.9 452.69 2370.4 415.36 2272.13"/><polygon class="cls-17" points="569.45 2313.15 814.12 2368.39 571.81 2360.31 569.45 2313.15"/><polygon class="cls-20" points="569.45 2313.15 802.12 2229.32 566.57 2255.9 569.45 2313.15"/><polygon class="cls-21" points="802.12 2229.32 814.12 2368.39 569.45 2313.15 802.12 2229.32"/><polygon class="cls-24" points="685.7 2339.4 814.12 2368.39 802.12 2229.32 684.35 2338.27 685.7 2339.4"/><polygon class="cls-21" points="1043.06 2148.5 808.07 2298.22 802.12 2229.32 1043.06 2148.5"/><polygon class="cls-16" points="1043.06 2148.5 1079.36 2318.53 808.07 2298.22 1043.06 2148.5"/><polygon class="cls-25" points="808.07 2298.22 814.12 2368.39 1079.36 2318.53 808.07 2298.22"/><polygon class="cls-26" points="1064.49 2248.9 1314.88 2229.32 1043.06 2148.5 1064.49 2248.9"/><polygon class="cls-14" points="1064.49 2248.9 1314.88 2369.49 1079.36 2318.53 1064.49 2248.9"/><polygon class="cls-24" points="1314.88 2229.32 1314.88 2369.49 1064.49 2248.9 1314.88 2229.32"/><polygon class="cls-27" points="266.32 2067.67 719.38 2001.77 480.49 1968.82 266.32 2067.67"/><polygon class="cls-28" points="719.38 2001.77 477.2 2229.32 266.32 2067.67 719.38 2001.77"/><polygon class="cls-29" points="719.38 2001.77 802.12 2229.32 477.2 2229.32 719.38 2001.77"/><polygon class="cls-30" points="594.79 2115.55 802.12 2229.32 477.2 2229.32 594.79 2115.55"/><polygon class="cls-29" points="492.85 1965.12 719.38 2001.77 925.32 1902.92 727.62 1894.68 492.85 1965.12"/><polygon class="cls-27" points="802.12 2229.32 925.32 1902.92 719.38 2001.77 802.12 2229.32"/><polygon class="cls-28" points="1043.06 2148.5 843.64 2119.31 802.12 2229.32 1043.06 2148.5"/><polygon class="cls-27" points="925.32 1902.92 1125.76 1902.92 1065.36 1853.5 925.32 1902.92"/><polygon class="cls-28" points="1125.76 1902.92 843.64 2119.31 925.32 1902.92 1125.76 1902.92"/><polygon class="cls-31" points="925.32 1902.92 943.71 2042.56 843.64 2119.31 925.32 1902.92"/><polygon class="cls-14" points="943.71 2042.56 1043.06 2148.5 843.64 2119.31 943.71 2042.56"/><polygon class="cls-27" points="943.71 2042.56 1314.88 2229.32 1043.06 2148.5 943.71 2042.56"/><polygon class="cls-14" points="1125.76 1902.92 1314.88 2229.32 943.71 2042.56 1125.76 1902.92"/><polygon class="cls-32" points="1125.76 1902.92 1254.82 1869.97 1065.36 1853.5 1125.76 1902.92"/><g class="cls-33"><polygon class="cls-34" points="1866.79 2051.2 1782.02 2001.77 1658.46 1985.3 1534.89 1927.63 1378.38 1927.63 1254.82 1869.97 1065.36 1853.5 925.32 1902.92 727.62 1894.68 480.49 1968.82 266.32 2067.67 192.18 2183 10.95 2314.8 -87.9 2447.75 1866.79 2447.75 1866.79 2051.2"/><polygon class="cls-35" points="10.95 2314.8 -87.9 2447.75 1866.79 2447.75 1866.79 2051.2 1782.02 2001.77 1784.39 2094.77 1314.88 2229.32 1043.06 2148.5 802.12 2229.32 477.2 2229.32 266.32 2067.67 192.18 2183 10.95 2314.8"/><path class="cls-36" d="M11,2314.8-87.9,2447.75H1866.79V2051.2L1691.73,2323l-376.85,46.45-235.52-51-271.06,51-241.73-9.39s-294.88,27.16-307.67,29.19-205.11-41.54-205.11-41.54L192.18,2183Z"/><polygon class="cls-37" points="1079.36 2318.53 1304.41 2408.62 1314.88 2369.49 1079.36 2318.53"/><polygon class="cls-38" points="1079.36 2318.53 1106.54 2447.75 1304.41 2408.62 1079.36 2318.53"/><polygon class="cls-39" points="1106.54 2447.75 1304.41 2408.62 1293.95 2447.75 1106.54 2447.75"/><polygon class="cls-40" points="826.47 2447.75 1096.02 2397.75 1106.54 2447.75 826.47 2447.75"/><polygon class="cls-41" points="998.25 2333.78 1096.02 2397.75 1079.36 2318.53 998.25 2333.78"/><polygon class="cls-42" points="998.25 2333.78 826.47 2447.75 814.12 2368.39 998.25 2333.78"/><polygon class="cls-43" points="998.25 2333.78 1096.02 2397.75 826.47 2447.75 998.25 2333.78"/><polygon class="cls-44" points="814.12 2368.39 682.31 2447.75 826.47 2447.75 814.12 2368.39"/><polygon class="cls-45" points="571.81 2360.31 747.31 2408.62 814.12 2368.39 571.81 2360.31"/><polygon class="cls-46" points="571.81 2360.31 682.31 2447.75 747.31 2408.62 571.81 2360.31"/><polygon class="cls-47" points="571.81 2360.31 521.68 2447.75 682.31 2447.75 571.81 2360.31"/><polygon class="cls-48" points="406.36 2447.75 571.81 2360.31 521.68 2447.75 406.36 2447.75"/><polygon class="cls-49" points="258.9 2389.29 517.58 2388.97 571.81 2360.31 258.9 2389.29"/><polygon class="cls-50" points="258.9 2389.29 406.36 2447.75 517.58 2388.97 258.9 2389.29"/><polygon class="cls-51" points="258.9 2389.29 95.39 2447.75 406.36 2447.75 258.9 2389.29"/><polygon class="cls-52" points="10.95 2314.8 95.39 2298.22 192.18 2183 10.95 2314.8"/><polygon class="cls-53" points="10.95 2314.8 53.79 2347.75 95.39 2298.22 10.95 2314.8"/><polygon class="cls-54" points="53.79 2347.75 -87.9 2447.75 10.95 2314.8 53.79 2347.75"/><polygon class="cls-55" points="53.79 2347.75 95.39 2447.75 258.9 2389.29 53.79 2347.75"/><polygon class="cls-56" points="192.18 2183 177.63 2374.8 53.79 2347.75 192.18 2183"/><polygon class="cls-57" points="184.27 2287.26 258.9 2389.29 177.63 2374.8 184.27 2287.26"/><polygon class="cls-58" points="192.18 2183 333.68 2119.31 266.32 2067.67 192.18 2183"/><polygon class="cls-59" points="184.27 2287.26 333.68 2119.31 192.18 2183 184.27 2287.26"/><polygon class="cls-60" points="184.27 2287.26 477.2 2229.32 333.68 2119.31 184.27 2287.26"/><polygon class="cls-61" points="184.27 2287.26 369.23 2379.07 258.9 2389.29 184.27 2287.26"/><polygon class="cls-62" points="118.04 2271.55 177.63 2374.8 53.79 2347.75 118.04 2271.55"/><polygon class="cls-63" points="118.04 2271.55 184.27 2287.26 192.18 2183 118.04 2271.55"/><polygon class="cls-64" points="477.2 2229.32 306.13 2347.75 184.27 2287.26 477.2 2229.32"/><polygon class="cls-65" points="415.36 2272.13 814.12 2229.32 477.2 2229.32 415.36 2272.13"/><polygon class="cls-66" points="415.36 2272.13 369.23 2379.07 306.13 2347.75 415.36 2272.13"/><polygon class="cls-67" points="415.36 2272.13 452.69 2370.4 369.23 2379.07 415.36 2272.13"/><polygon class="cls-68" points="306.13 2347.75 258.9 2389.29 369.23 2379.07 306.13 2347.75"/><polygon class="cls-69" points="333.68 2119.31 360.74 2252.36 184.27 2287.26 333.68 2119.31"/><polygon class="cls-70" points="452.69 2370.4 566.57 2255.9 571.81 2360.31 452.69 2370.4"/><polygon class="cls-71" points="415.36 2272.13 566.57 2255.9 452.69 2370.4 415.36 2272.13"/><polygon class="cls-72" points="569.45 2313.15 814.12 2368.39 571.81 2360.31 569.45 2313.15"/><polygon class="cls-73" points="569.45 2313.15 802.12 2229.32 566.57 2255.9 569.45 2313.15"/><polygon class="cls-74" points="802.12 2229.32 814.12 2368.39 569.45 2313.15 802.12 2229.32"/><polygon class="cls-75" points="685.7 2339.4 814.12 2368.39 802.12 2229.32 684.35 2338.27 685.7 2339.4"/><polygon class="cls-76" points="1043.06 2148.5 808.07 2298.22 802.12 2229.32 1043.06 2148.5"/><polygon class="cls-77" points="1043.06 2148.5 1079.36 2318.53 808.07 2298.22 1043.06 2148.5"/><polygon class="cls-78" points="808.07 2298.22 814.12 2368.39 1079.36 2318.53 808.07 2298.22"/><polygon class="cls-79" points="1064.49 2248.9 1314.88 2229.32 1043.06 2148.5 1064.49 2248.9"/><polygon class="cls-80" points="1064.49 2248.9 1314.88 2369.49 1079.36 2318.53 1064.49 2248.9"/><polygon class="cls-81" points="1314.88 2229.32 1314.88 2369.49 1064.49 2248.9 1314.88 2229.32"/><polygon class="cls-82" points="266.32 2067.67 719.38 2001.77 480.49 1968.82 266.32 2067.67"/><polygon class="cls-83" points="719.38 2001.77 477.2 2229.32 266.32 2067.67 719.38 2001.77"/><polygon class="cls-84" points="719.38 2001.77 802.12 2229.32 477.2 2229.32 719.38 2001.77"/><polygon class="cls-85" points="594.79 2115.55 802.12 2229.32 477.2 2229.32 594.79 2115.55"/><polygon class="cls-86" points="492.85 1965.12 719.38 2001.77 925.32 1902.92 727.62 1894.68 492.85 1965.12"/><polygon class="cls-87" points="802.12 2229.32 925.32 1902.92 719.38 2001.77 802.12 2229.32"/><polygon class="cls-88" points="1043.06 2148.5 843.64 2119.31 802.12 2229.32 1043.06 2148.5"/><polygon class="cls-89" points="925.32 1902.92 1125.76 1902.92 1065.36 1853.5 925.32 1902.92"/><polygon class="cls-90" points="1125.76 1902.92 843.64 2119.31 925.32 1902.92 1125.76 1902.92"/><polygon class="cls-91" points="925.32 1902.92 943.71 2042.56 843.64 2119.31 925.32 1902.92"/><polygon class="cls-92" points="943.71 2042.56 1043.06 2148.5 843.64 2119.31 943.71 2042.56"/><polygon class="cls-93" points="943.71 2042.56 1314.88 2229.32 1043.06 2148.5 943.71 2042.56"/><polygon class="cls-94" points="1125.76 1902.92 1314.88 2229.32 943.71 2042.56 1125.76 1902.92"/><polygon class="cls-95" points="1125.76 1902.92 1254.82 1869.97 1065.36 1853.5 1125.76 1902.92"/></g><polygon class="cls-96" points="-310.31 2075.91 64.5 2117.1 -26.11 2273.61 -310.31 2075.91"/><polygon class="cls-97" points="64.5 2117.1 126.74 2235.46 90.48 2223.93 19.19 2183 64.5 2117.1"/><polygon class="cls-98" points="64.5 2117.1 266.32 2067.67 192.18 2183 64.5 2117.1"/><polygon class="cls-99" points="126.74 2235.46 64.5 2117.1 192.18 2183 126.74 2235.46"/><g class="cls-100"><polygon class="cls-101" points="1866.79 2051.2 1782.02 2001.77 1658.46 1985.3 1534.89 1927.63 1378.38 1927.63 1254.82 1869.97 1065.36 1853.5 925.32 1902.92 727.62 1894.68 480.49 1968.82 266.32 2067.67 192.18 2183 10.95 2314.8 -87.9 2447.75 1866.79 2447.75 1866.79 2051.2"/><polygon class="cls-102" points="10.95 2314.8 -87.9 2447.75 1866.79 2447.75 1866.79 2051.2 1782.02 2001.77 1784.39 2094.77 1314.88 2229.32 1043.06 2148.5 802.12 2229.32 477.2 2229.32 266.32 2067.67 192.18 2183 10.95 2314.8"/><path class="cls-103" d="M11,2314.8-87.9,2447.75H1866.79V2051.2L1691.73,2323l-376.85,46.45-235.52-51-271.06,51-241.73-9.39s-294.88,27.16-307.67,29.19-205.11-41.54-205.11-41.54L192.18,2183Z"/><polygon class="cls-104" points="1079.36 2318.53 1304.41 2408.62 1314.88 2369.49 1079.36 2318.53"/><polygon class="cls-105" points="1079.36 2318.53 1106.54 2447.75 1304.41 2408.62 1079.36 2318.53"/><polygon class="cls-106" points="1106.54 2447.75 1304.41 2408.62 1293.95 2447.75 1106.54 2447.75"/><polygon class="cls-107" points="826.47 2447.75 1096.02 2397.75 1106.54 2447.75 826.47 2447.75"/><polygon class="cls-108" points="998.25 2333.78 1096.02 2397.75 1079.36 2318.53 998.25 2333.78"/><polygon class="cls-109" points="998.25 2333.78 826.47 2447.75 814.12 2368.39 998.25 2333.78"/><polygon class="cls-110" points="998.25 2333.78 1096.02 2397.75 826.47 2447.75 998.25 2333.78"/><polygon class="cls-111" points="814.12 2368.39 682.31 2447.75 826.47 2447.75 814.12 2368.39"/><polygon class="cls-112" points="571.81 2360.31 747.31 2408.62 814.12 2368.39 571.81 2360.31"/><polygon class="cls-113" points="571.81 2360.31 682.31 2447.75 747.31 2408.62 571.81 2360.31"/><polygon class="cls-114" points="571.81 2360.31 521.68 2447.75 682.31 2447.75 571.81 2360.31"/><polygon class="cls-115" points="406.36 2447.75 571.81 2360.31 521.68 2447.75 406.36 2447.75"/><polygon class="cls-116" points="258.9 2389.29 517.58 2388.97 571.81 2360.31 258.9 2389.29"/><polygon class="cls-117" points="258.9 2389.29 406.36 2447.75 517.58 2388.97 258.9 2389.29"/><polygon class="cls-118" points="258.9 2389.29 95.39 2447.75 406.36 2447.75 258.9 2389.29"/><polygon class="cls-119" points="10.95 2314.8 95.39 2298.22 192.18 2183 10.95 2314.8"/><polygon class="cls-120" points="10.95 2314.8 53.79 2347.75 95.39 2298.22 10.95 2314.8"/><polygon class="cls-121" points="53.79 2347.75 -87.9 2447.75 10.95 2314.8 53.79 2347.75"/><polygon class="cls-122" points="53.79 2347.75 95.39 2447.75 258.9 2389.29 53.79 2347.75"/><polygon class="cls-123" points="192.18 2183 177.63 2374.8 53.79 2347.75 192.18 2183"/><polygon class="cls-124" points="184.27 2287.26 258.9 2389.29 177.63 2374.8 184.27 2287.26"/><polygon class="cls-125" points="192.18 2183 333.68 2119.31 266.32 2067.67 192.18 2183"/><polygon class="cls-126" points="184.27 2287.26 333.68 2119.31 192.18 2183 184.27 2287.26"/><polygon class="cls-127" points="184.27 2287.26 477.2 2229.32 333.68 2119.31 184.27 2287.26"/><polygon class="cls-128" points="184.27 2287.26 369.23 2379.07 258.9 2389.29 184.27 2287.26"/><polygon class="cls-129" points="118.04 2271.55 177.63 2374.8 53.79 2347.75 118.04 2271.55"/><polygon class="cls-130" points="118.04 2271.55 184.27 2287.26 192.18 2183 118.04 2271.55"/><polygon class="cls-131" points="477.2 2229.32 306.13 2347.75 184.27 2287.26 477.2 2229.32"/><polygon class="cls-132" points="415.36 2272.13 814.12 2229.32 477.2 2229.32 415.36 2272.13"/><polygon class="cls-133" points="415.36 2272.13 369.23 2379.07 306.13 2347.75 415.36 2272.13"/><polygon class="cls-134" points="415.36 2272.13 452.69 2370.4 369.23 2379.07 415.36 2272.13"/><polygon class="cls-135" points="306.13 2347.75 258.9 2389.29 369.23 2379.07 306.13 2347.75"/><polygon class="cls-136" points="333.68 2119.31 360.74 2252.36 184.27 2287.26 333.68 2119.31"/><polygon class="cls-137" points="452.69 2370.4 566.57 2255.9 571.81 2360.31 452.69 2370.4"/><polygon class="cls-138" points="415.36 2272.13 566.57 2255.9 452.69 2370.4 415.36 2272.13"/><polygon class="cls-139" points="569.45 2313.15 814.12 2368.39 571.81 2360.31 569.45 2313.15"/><polygon class="cls-140" points="569.45 2313.15 802.12 2229.32 566.57 2255.9 569.45 2313.15"/><polygon class="cls-141" points="802.12 2229.32 814.12 2368.39 569.45 2313.15 802.12 2229.32"/><polygon class="cls-142" points="685.7 2339.4 814.12 2368.39 802.12 2229.32 684.35 2338.27 685.7 2339.4"/><polygon class="cls-143" points="1043.06 2148.5 808.07 2298.22 802.12 2229.32 1043.06 2148.5"/><polygon class="cls-144" points="1043.06 2148.5 1079.36 2318.53 808.07 2298.22 1043.06 2148.5"/><polygon class="cls-145" points="808.07 2298.22 814.12 2368.39 1079.36 2318.53 808.07 2298.22"/><polygon class="cls-146" points="1064.49 2248.9 1314.88 2229.32 1043.06 2148.5 1064.49 2248.9"/><polygon class="cls-147" points="1064.49 2248.9 1314.88 2369.49 1079.36 2318.53 1064.49 2248.9"/><polygon class="cls-148" points="1314.88 2229.32 1314.88 2369.49 1064.49 2248.9 1314.88 2229.32"/><polygon class="cls-149" points="266.32 2067.67 719.38 2001.77 480.49 1968.82 266.32 2067.67"/><polygon class="cls-150" points="719.38 2001.77 477.2 2229.32 266.32 2067.67 719.38 2001.77"/><polygon class="cls-151" points="719.38 2001.77 802.12 2229.32 477.2 2229.32 719.38 2001.77"/><polygon class="cls-152" points="594.79 2115.55 802.12 2229.32 477.2 2229.32 594.79 2115.55"/><polygon class="cls-153" points="492.85 1965.12 719.38 2001.77 925.32 1902.92 727.62 1894.68 492.85 1965.12"/><polygon class="cls-154" points="802.12 2229.32 925.32 1902.92 719.38 2001.77 802.12 2229.32"/><polygon class="cls-155" points="1043.06 2148.5 843.64 2119.31 802.12 2229.32 1043.06 2148.5"/><polygon class="cls-156" points="925.32 1902.92 1125.76 1902.92 1065.36 1853.5 925.32 1902.92"/><polygon class="cls-157" points="1125.76 1902.92 843.64 2119.31 925.32 1902.92 1125.76 1902.92"/><polygon class="cls-158" points="925.32 1902.92 943.71 2042.56 843.64 2119.31 925.32 1902.92"/><polygon class="cls-159" points="943.71 2042.56 1043.06 2148.5 843.64 2119.31 943.71 2042.56"/><polygon class="cls-160" points="943.71 2042.56 1314.88 2229.32 1043.06 2148.5 943.71 2042.56"/><polygon class="cls-161" points="1125.76 1902.92 1314.88 2229.32 943.71 2042.56 1125.76 1902.92"/><polygon class="cls-162" points="1125.76 1902.92 1254.82 1869.97 1065.36 1853.5 1125.76 1902.92"/><g class="cls-33"><polygon class="cls-101" points="1866.79 2051.2 1782.02 2001.77 1658.46 1985.3 1534.89 1927.63 1378.38 1927.63 1254.82 1869.97 1065.36 1853.5 925.32 1902.92 727.62 1894.68 480.49 1968.82 266.32 2067.67 192.18 2183 10.95 2314.8 -87.9 2447.75 1866.79 2447.75 1866.79 2051.2"/><polygon class="cls-163" points="10.95 2314.8 -87.9 2447.75 1866.79 2447.75 1866.79 2051.2 1782.02 2001.77 1784.39 2094.77 1314.88 2229.32 1043.06 2148.5 802.12 2229.32 477.2 2229.32 266.32 2067.67 192.18 2183 10.95 2314.8"/><path class="cls-103" d="M11,2314.8-87.9,2447.75H1866.79V2051.2L1691.73,2323l-376.85,46.45-235.52-51-271.06,51-241.73-9.39s-294.88,27.16-307.67,29.19-205.11-41.54-205.11-41.54L192.18,2183Z"/><polygon class="cls-104" points="1079.36 2318.53 1304.41 2408.62 1314.88 2369.49 1079.36 2318.53"/><polygon class="cls-105" points="1079.36 2318.53 1106.54 2447.75 1304.41 2408.62 1079.36 2318.53"/><polygon class="cls-106" points="1106.54 2447.75 1304.41 2408.62 1293.95 2447.75 1106.54 2447.75"/><polygon class="cls-107" points="826.47 2447.75 1096.02 2397.75 1106.54 2447.75 826.47 2447.75"/><polygon class="cls-108" points="998.25 2333.78 1096.02 2397.75 1079.36 2318.53 998.25 2333.78"/><polygon class="cls-109" points="998.25 2333.78 826.47 2447.75 814.12 2368.39 998.25 2333.78"/><polygon class="cls-110" points="998.25 2333.78 1096.02 2397.75 826.47 2447.75 998.25 2333.78"/><polygon class="cls-111" points="814.12 2368.39 682.31 2447.75 826.47 2447.75 814.12 2368.39"/><polygon class="cls-112" points="571.81 2360.31 747.31 2408.62 814.12 2368.39 571.81 2360.31"/><polygon class="cls-113" points="571.81 2360.31 682.31 2447.75 747.31 2408.62 571.81 2360.31"/><polygon class="cls-114" points="571.81 2360.31 521.68 2447.75 682.31 2447.75 571.81 2360.31"/><polygon class="cls-115" points="406.36 2447.75 571.81 2360.31 521.68 2447.75 406.36 2447.75"/><polygon class="cls-116" points="258.9 2389.29 517.58 2388.97 571.81 2360.31 258.9 2389.29"/><polygon class="cls-117" points="258.9 2389.29 406.36 2447.75 517.58 2388.97 258.9 2389.29"/><polygon class="cls-118" points="258.9 2389.29 95.39 2447.75 406.36 2447.75 258.9 2389.29"/><polygon class="cls-119" points="10.95 2314.8 95.39 2298.22 192.18 2183 10.95 2314.8"/><polygon class="cls-120" points="10.95 2314.8 53.79 2347.75 95.39 2298.22 10.95 2314.8"/><polygon class="cls-121" points="53.79 2347.75 -87.9 2447.75 10.95 2314.8 53.79 2347.75"/><polygon class="cls-122" points="53.79 2347.75 95.39 2447.75 258.9 2389.29 53.79 2347.75"/><polygon class="cls-123" points="192.18 2183 177.63 2374.8 53.79 2347.75 192.18 2183"/><polygon class="cls-124" points="184.27 2287.26 258.9 2389.29 177.63 2374.8 184.27 2287.26"/><polygon class="cls-125" points="192.18 2183 333.68 2119.31 266.32 2067.67 192.18 2183"/><polygon class="cls-126" points="184.27 2287.26 333.68 2119.31 192.18 2183 184.27 2287.26"/><polygon class="cls-127" points="184.27 2287.26 477.2 2229.32 333.68 2119.31 184.27 2287.26"/><polygon class="cls-128" points="184.27 2287.26 369.23 2379.07 258.9 2389.29 184.27 2287.26"/><polygon class="cls-129" points="118.04 2271.55 177.63 2374.8 53.79 2347.75 118.04 2271.55"/><polygon class="cls-130" points="118.04 2271.55 184.27 2287.26 192.18 2183 118.04 2271.55"/><polygon class="cls-131" points="477.2 2229.32 306.13 2347.75 184.27 2287.26 477.2 2229.32"/><polygon class="cls-132" points="415.36 2272.13 814.12 2229.32 477.2 2229.32 415.36 2272.13"/><polygon class="cls-133" points="415.36 2272.13 369.23 2379.07 306.13 2347.75 415.36 2272.13"/><polygon class="cls-134" points="415.36 2272.13 452.69 2370.4 369.23 2379.07 415.36 2272.13"/><polygon class="cls-135" points="306.13 2347.75 258.9 2389.29 369.23 2379.07 306.13 2347.75"/><polygon class="cls-136" points="333.68 2119.31 360.74 2252.36 184.27 2287.26 333.68 2119.31"/><polygon class="cls-137" points="452.69 2370.4 566.57 2255.9 571.81 2360.31 452.69 2370.4"/><polygon class="cls-138" points="415.36 2272.13 566.57 2255.9 452.69 2370.4 415.36 2272.13"/><polygon class="cls-139" points="569.45 2313.15 814.12 2368.39 571.81 2360.31 569.45 2313.15"/><polygon class="cls-140" points="569.45 2313.15 802.12 2229.32 566.57 2255.9 569.45 2313.15"/><polygon class="cls-141" points="802.12 2229.32 814.12 2368.39 569.45 2313.15 802.12 2229.32"/><polygon class="cls-142" points="685.7 2339.4 814.12 2368.39 802.12 2229.32 684.35 2338.27 685.7 2339.4"/><polygon class="cls-143" points="1043.06 2148.5 808.07 2298.22 802.12 2229.32 1043.06 2148.5"/><polygon class="cls-144" points="1043.06 2148.5 1079.36 2318.53 808.07 2298.22 1043.06 2148.5"/><polygon class="cls-145" points="808.07 2298.22 814.12 2368.39 1079.36 2318.53 808.07 2298.22"/><polygon class="cls-146" points="1064.49 2248.9 1314.88 2229.32 1043.06 2148.5 1064.49 2248.9"/><polygon class="cls-147" points="1064.49 2248.9 1314.88 2369.49 1079.36 2318.53 1064.49 2248.9"/><polygon class="cls-148" points="1314.88 2229.32 1314.88 2369.49 1064.49 2248.9 1314.88 2229.32"/><polygon class="cls-149" points="266.32 2067.67 719.38 2001.77 480.49 1968.82 266.32 2067.67"/><polygon class="cls-150" points="719.38 2001.77 477.2 2229.32 266.32 2067.67 719.38 2001.77"/><polygon class="cls-151" points="719.38 2001.77 802.12 2229.32 477.2 2229.32 719.38 2001.77"/><polygon class="cls-152" points="594.79 2115.55 802.12 2229.32 477.2 2229.32 594.79 2115.55"/><polygon class="cls-153" points="492.85 1965.12 719.38 2001.77 925.32 1902.92 727.62 1894.68 492.85 1965.12"/><polygon class="cls-154" points="802.12 2229.32 925.32 1902.92 719.38 2001.77 802.12 2229.32"/><polygon class="cls-155" points="1043.06 2148.5 843.64 2119.31 802.12 2229.32 1043.06 2148.5"/><polygon class="cls-156" points="925.32 1902.92 1125.76 1902.92 1065.36 1853.5 925.32 1902.92"/><polygon class="cls-157" points="1125.76 1902.92 843.64 2119.31 925.32 1902.92 1125.76 1902.92"/><polygon class="cls-158" points="925.32 1902.92 943.71 2042.56 843.64 2119.31 925.32 1902.92"/><polygon class="cls-159" points="943.71 2042.56 1043.06 2148.5 843.64 2119.31 943.71 2042.56"/><polygon class="cls-160" points="943.71 2042.56 1314.88 2229.32 1043.06 2148.5 943.71 2042.56"/><polygon class="cls-161" points="1125.76 1902.92 1314.88 2229.32 943.71 2042.56 1125.76 1902.92"/><polygon class="cls-162" points="1125.76 1902.92 1254.82 1869.97 1065.36 1853.5 1125.76 1902.92"/></g></g><polygon class="cls-164" points="-159.14 2119.46 -30.75 2166.06 85.09 2223.93 -34.35 2190.98 -159.14 2119.46"/><polygon class="cls-164" points="-159.14 2119.46 -30.75 2166.06 85.09 2223.93 -34.35 2190.98 -159.14 2119.46"/><polygon class="cls-164" points="1444.28 2429.87 1320.72 2396.92 1238.34 2380.44 1098.31 2380.44 958.27 2405.16 851.18 2363.97 744.09 2347.49 620.53 2298.07 496.97 2314.54 389.88 2273.36 258.08 2281.59 85.09 2223.93 -30.23 2149.79 -170.27 2116.84 -351.5 2042.7 -585 2011.15 -585 2447.5 1468.52 2447.5 1444.28 2429.87"/><polygon class="cls-165" points="-34.35 2190.98 85.09 2223.93 -30.23 2149.79 -34.35 2190.98"/><polygon class="cls-166" points="-34.35 2190.98 91.28 2256.12 119.69 2235.46 -34.35 2190.98"/><polygon class="cls-167" points="91.28 2256.12 258.08 2281.59 119.69 2235.46 91.28 2256.12"/><polygon class="cls-168" points="258.08 2281.59 389.88 2303.56 389.88 2273.36 258.08 2281.59"/><polygon class="cls-164" points="389.88 2303.56 496.97 2314.54 389.88 2273.36 389.88 2303.56"/><polygon class="cls-168" points="91.28 2256.12 -307.56 2310.77 -34.35 2190.98 91.28 2256.12"/><polygon class="cls-166" points="-108.14 2281.59 10.95 2314.54 91.28 2256.12 -108.14 2281.59"/><polygon class="cls-169" points="-241.58 2371.55 10.95 2314.54 -108.14 2281.59 -241.58 2371.55"/><polygon class="cls-170" points="-241.58 2371.55 -87.9 2447.5 10.95 2314.54 -241.58 2371.55"/><polygon class="cls-164" points="-108.58 2282.19 -34.35 2190.98 90.84 2256.72 -108.58 2282.19"/><polygon class="cls-168" points="258.08 2281.59 10.95 2314.54 91.28 2256.12 258.08 2281.59"/><polygon class="cls-164" points="91.28 2256.12 146.93 2296.41 258.08 2281.59 91.28 2256.12"/><polygon class="cls-171" points="146.93 2296.41 -91.5 2447.75 10.95 2314.54 146.93 2296.41"/><polygon class="cls-169" points="25.37 2374.62 146.93 2447.5 -94.69 2447.5 25.37 2374.62"/><polygon class="cls-172" points="146.93 2296.41 146.93 2447.5 25.37 2374.62 146.93 2296.41"/><polygon class="cls-173" points="258.08 2281.59 146.93 2359.85 146.93 2296.41 258.08 2281.59"/><polygon class="cls-169" points="258.08 2281.59 146.93 2447.5 146.93 2359.85 258.08 2281.59"/><polygon class="cls-174" points="496.97 2314.54 379.58 2326.57 258.08 2281.59 496.97 2314.54"/><polygon class="cls-171" points="379.58 2326.57 146.93 2447.5 258.08 2281.59 379.58 2326.57"/><polygon class="cls-164" points="496.97 2314.54 640.9 2330.57 620.53 2298.07 496.97 2314.54"/><polygon class="cls-169" points="379.58 2326.57 352.81 2447.5 146.93 2447.5 379.58 2326.57"/><polygon class="cls-172" points="258.08 2281.59 263.25 2387.03 379.58 2326.57 258.08 2281.59"/><polygon class="cls-175" points="379.58 2326.57 249.84 2447.5 352.81 2447.5 379.58 2326.57"/><polygon class="cls-167" points="640.9 2330.57 744.09 2347.49 620.53 2298.07 640.9 2330.57"/><polygon class="cls-171" points="496.97 2314.54 431.07 2387.03 379.58 2326.57 496.97 2314.54"/><polygon class="cls-169" points="496.97 2314.54 496.97 2447.5 431.07 2387.03 496.97 2314.54"/><polygon class="cls-174" points="640.9 2330.57 496.97 2387.03 496.97 2314.54 640.9 2330.57"/><path class="cls-168" d="M640.9,2330.56c15.31,2.52,222.64,77.34,222.64,77.34L851.18,2364Z"/><polygon class="cls-173" points="640.9 2330.57 496.97 2447.5 496.97 2387.03 640.9 2330.57"/><polygon class="cls-175" points="640.9 2330.57 719.38 2447.5 978.86 2447.5 640.9 2330.57"/><polygon class="cls-176" points="496.97 2447.5 640.9 2330.57 719.38 2447.5 496.97 2447.5"/><polygon class="cls-164" points="863.54 2407.9 958.27 2405.16 851.18 2363.97 863.54 2407.9"/><polygon class="cls-174" points="958.27 2405.16 978.86 2447.5 863.54 2407.9 958.27 2405.16"/><polygon class="cls-164" points="978.86 2447.5 1098.31 2380.44 958.27 2405.16 978.86 2447.5"/><polygon class="cls-167" points="978.86 2447.5 1238.34 2380.44 1098.31 2380.44 978.86 2447.5"/><polygon class="cls-175" points="1238.34 2380.44 1223.93 2447.5 978.86 2447.5 1238.34 2380.44"/><polygon class="cls-172" points="379.58 2326.57 496.97 2447.5 352.81 2447.5 379.58 2326.57"/><polygon class="cls-177" points="640.9 2330.57 855.81 2380.44 851.18 2363.97 640.9 2330.57"/><polygon class="cls-167" points="855.81 2380.44 958.27 2405.16 851.18 2363.97 855.81 2380.44"/><polygon class="cls-164" points="25.37 2374.62 146.93 2359.85 146.93 2296.41 25.37 2374.62"/><polygon class="cls-175" points="263.25 2387.03 249.84 2447.5 146.93 2447.5 263.25 2387.03"/><path class="cls-175" d="M25.37,2374.62s14,78.15,17.3,72.88,104.26,0,104.26,0Z"/><polygon class="cls-168" points="-23.71 2196.5 25.37 2265.15 91.28 2256.12 -23.71 2196.5"/><polygon class="cls-168" points="1098.31 2380.44 1056.55 2427.42 978.86 2447.5 1098.31 2380.44"/><polygon class="cls-168" points="496.97 2314.54 577.33 2355.5 640.9 2330.57 496.97 2314.54"/><polygon class="cls-168" points="258.08 2281.59 323.98 2355.47 379.58 2326.57 258.08 2281.59"/><g class="cls-178"><polygon class="cls-179" points="1444.28 2429.61 1320.72 2396.66 1238.34 2380.19 1098.31 2380.19 958.27 2404.9 851.18 2363.71 744.09 2347.24 620.53 2297.81 496.97 2314.29 389.88 2273.1 258.08 2281.34 85.09 2223.68 -30.23 2149.54 -170.27 2116.59 -351.5 2042.45 -585 2010.89 -585 2447.24 1468.52 2447.24 1444.28 2429.61"/><polygon class="cls-180" points="-34.35 2190.72 85.09 2223.68 -30.23 2149.54 -34.35 2190.72"/><polygon class="cls-181" points="-34.35 2190.72 91.28 2255.87 119.69 2235.21 -34.35 2190.72"/><polygon class="cls-182" points="91.28 2255.87 258.08 2281.34 119.69 2235.21 91.28 2255.87"/><polygon class="cls-183" points="258.08 2281.34 389.88 2303.3 389.88 2273.1 258.08 2281.34"/><polygon class="cls-184" points="389.88 2303.3 496.97 2314.29 389.88 2273.1 389.88 2303.3"/><polygon class="cls-185" points="91.28 2255.87 -307.56 2310.51 -34.35 2190.72 91.28 2255.87"/><polygon class="cls-186" points="-108.14 2281.34 10.95 2314.29 91.28 2255.87 -108.14 2281.34"/><polygon class="cls-187" points="-241.58 2371.29 10.95 2314.29 -108.14 2281.34 -241.58 2371.29"/><polygon class="cls-188" points="-241.58 2371.29 -87.9 2447.24 10.95 2314.29 -241.58 2371.29"/><polygon class="cls-189" points="-108.58 2281.93 -34.35 2190.72 90.84 2256.47 -108.58 2281.93"/><polygon class="cls-190" points="258.08 2281.34 10.95 2314.29 91.28 2255.87 258.08 2281.34"/><polygon class="cls-191" points="91.28 2255.87 146.93 2296.16 258.08 2281.34 91.28 2255.87"/><polygon class="cls-192" points="146.93 2296.16 -91.5 2447.5 10.95 2314.29 146.93 2296.16"/><polygon class="cls-193" points="25.37 2374.37 146.93 2447.24 -94.69 2447.24 25.37 2374.37"/><polygon class="cls-194" points="146.93 2296.16 146.93 2447.24 25.37 2374.37 146.93 2296.16"/><polygon class="cls-195" points="258.08 2281.34 146.93 2359.59 146.93 2296.16 258.08 2281.34"/><polygon class="cls-196" points="258.08 2281.34 146.93 2447.24 146.93 2359.59 258.08 2281.34"/><polygon class="cls-197" points="496.97 2314.29 379.58 2326.32 258.08 2281.34 496.97 2314.29"/><polygon class="cls-198" points="379.58 2326.32 146.93 2447.24 258.08 2281.34 379.58 2326.32"/><polygon class="cls-199" points="496.97 2314.29 640.9 2330.31 620.53 2297.81 496.97 2314.29"/><polygon class="cls-200" points="379.58 2326.32 352.81 2447.24 146.93 2447.24 379.58 2326.32"/><polygon class="cls-201" points="258.08 2281.34 263.25 2386.78 379.58 2326.32 258.08 2281.34"/><polygon class="cls-202" points="379.58 2326.32 249.84 2447.24 352.81 2447.24 379.58 2326.32"/><polygon class="cls-203" points="640.9 2330.31 744.09 2347.24 620.53 2297.81 640.9 2330.31"/><polygon class="cls-204" points="496.97 2314.29 431.07 2386.78 379.58 2326.32 496.97 2314.29"/><polygon class="cls-205" points="496.97 2314.29 496.97 2447.24 431.07 2386.78 496.97 2314.29"/><polygon class="cls-206" points="640.9 2330.31 496.97 2386.78 496.97 2314.29 640.9 2330.31"/><path class="cls-207" d="M640.9,2330.31c15.31,2.51,222.64,77.34,222.64,77.34l-12.36-43.94Z"/><polygon class="cls-208" points="640.9 2330.31 496.97 2447.24 496.97 2386.78 640.9 2330.31"/><polygon class="cls-209" points="640.9 2330.31 719.38 2447.24 978.86 2447.24 640.9 2330.31"/><polygon class="cls-210" points="496.97 2447.24 640.9 2330.31 719.38 2447.24 496.97 2447.24"/><polygon class="cls-211" points="863.54 2407.65 958.27 2404.9 851.18 2363.71 863.54 2407.65"/><polygon class="cls-212" points="958.27 2404.9 978.86 2447.24 863.54 2407.65 958.27 2404.9"/><polygon class="cls-213" points="978.86 2447.24 1098.31 2380.19 958.27 2404.9 978.86 2447.24"/><polygon class="cls-214" points="978.86 2447.24 1238.34 2380.19 1098.31 2380.19 978.86 2447.24"/><polygon class="cls-215" points="1238.34 2380.19 1223.93 2447.24 978.86 2447.24 1238.34 2380.19"/><polygon class="cls-216" points="379.58 2326.32 496.97 2447.24 352.81 2447.24 379.58 2326.32"/><polygon class="cls-217" points="640.9 2330.31 855.81 2380.19 851.18 2363.71 640.9 2330.31"/><polygon class="cls-218" points="855.81 2380.19 958.27 2404.9 851.18 2363.71 855.81 2380.19"/><polygon class="cls-219" points="25.37 2374.37 146.93 2359.59 146.93 2296.16 25.37 2374.37"/><polygon class="cls-220" points="263.25 2386.78 249.84 2447.24 146.93 2447.24 263.25 2386.78"/><path class="cls-221" d="M25.37,2374.37s14,78.14,17.3,72.87,104.26,0,104.26,0Z"/><polygon class="cls-222" points="-23.71 2196.24 25.37 2264.9 91.28 2255.87 -23.71 2196.24"/><polygon class="cls-223" points="1098.31 2380.19 1056.55 2427.17 978.86 2447.24 1098.31 2380.19"/><polygon class="cls-224" points="496.97 2314.29 577.33 2355.25 640.9 2330.31 496.97 2314.29"/><polygon class="cls-225" points="258.08 2281.34 323.98 2355.22 379.58 2326.32 258.08 2281.34"/></g><g class="cls-226"><polygon class="cls-227" points="1445.94 2429.87 1322.38 2396.92 1240.01 2380.44 1099.97 2380.44 959.93 2405.16 852.84 2363.97 745.76 2347.49 622.19 2298.07 498.63 2314.54 391.54 2273.36 259.74 2281.59 86.75 2223.93 -28.57 2149.79 -168.61 2116.84 -349.83 2042.7 -583.34 2011.15 -583.34 2447.5 1470.18 2447.5 1445.94 2429.87"/><polygon class="cls-228" points="-32.69 2190.98 86.75 2223.93 -28.57 2149.79 -32.69 2190.98"/><polygon class="cls-229" points="-32.69 2190.98 92.94 2256.12 121.35 2235.46 -32.69 2190.98"/><polygon class="cls-230" points="92.94 2256.12 259.74 2281.59 121.35 2235.46 92.94 2256.12"/><polygon class="cls-231" points="259.74 2281.59 391.54 2303.56 391.54 2273.36 259.74 2281.59"/><polygon class="cls-232" points="391.54 2303.56 498.63 2314.54 391.54 2273.36 391.54 2303.56"/><polygon class="cls-233" points="92.94 2256.12 -305.9 2310.77 -32.69 2190.98 92.94 2256.12"/><polygon class="cls-234" points="-106.48 2281.59 12.62 2314.54 92.94 2256.12 -106.48 2281.59"/><polygon class="cls-235" points="-239.92 2371.55 12.62 2314.54 -106.48 2281.59 -239.92 2371.55"/><polygon class="cls-236" points="-239.92 2371.55 -86.23 2447.5 12.62 2314.54 -239.92 2371.55"/><polygon class="cls-237" points="-106.92 2282.19 -32.69 2190.98 92.5 2256.72 -106.92 2282.19"/><polygon class="cls-238" points="259.74 2281.59 12.62 2314.54 92.94 2256.12 259.74 2281.59"/><polygon class="cls-239" points="92.94 2256.12 148.59 2296.41 259.74 2281.59 92.94 2256.12"/><polygon class="cls-240" points="148.59 2296.41 -89.84 2447.75 12.62 2314.54 148.59 2296.41"/><polygon class="cls-241" points="27.03 2374.62 148.59 2447.5 -93.02 2447.5 27.03 2374.62"/><polygon class="cls-242" points="148.59 2296.41 148.59 2447.5 27.03 2374.62 148.59 2296.41"/><polygon class="cls-243" points="259.74 2281.59 148.59 2359.85 148.59 2296.41 259.74 2281.59"/><polygon class="cls-244" points="259.74 2281.59 148.59 2447.5 148.59 2359.85 259.74 2281.59"/><polygon class="cls-245" points="498.63 2314.54 381.25 2326.57 259.74 2281.59 498.63 2314.54"/><polygon class="cls-246" points="381.25 2326.57 148.59 2447.5 259.74 2281.59 381.25 2326.57"/><polygon class="cls-247" points="498.63 2314.54 642.56 2330.57 622.19 2298.07 498.63 2314.54"/><polygon class="cls-248" points="381.25 2326.57 354.47 2447.5 148.59 2447.5 381.25 2326.57"/><polygon class="cls-249" points="259.74 2281.59 264.92 2387.03 381.25 2326.57 259.74 2281.59"/><polygon class="cls-250" points="381.25 2326.57 251.5 2447.5 354.47 2447.5 381.25 2326.57"/><polygon class="cls-251" points="642.56 2330.57 745.76 2347.49 622.19 2298.07 642.56 2330.57"/><polygon class="cls-252" points="498.63 2314.54 432.73 2387.03 381.25 2326.57 498.63 2314.54"/><polygon class="cls-253" points="498.63 2314.54 498.63 2447.5 432.73 2387.03 498.63 2314.54"/><polygon class="cls-254" points="642.56 2330.57 498.63 2387.03 498.63 2314.54 642.56 2330.57"/><path class="cls-255" d="M642.56,2330.56c15.32,2.52,222.64,77.34,222.64,77.34L852.84,2364Z"/><polygon class="cls-256" points="642.56 2330.57 498.63 2447.5 498.63 2387.03 642.56 2330.57"/><polygon class="cls-257" points="642.56 2330.57 721.04 2447.5 980.52 2447.5 642.56 2330.57"/><polygon class="cls-258" points="498.63 2447.5 642.56 2330.57 721.04 2447.5 498.63 2447.5"/><polygon class="cls-259" points="865.2 2407.9 959.93 2405.16 852.84 2363.97 865.2 2407.9"/><polygon class="cls-260" points="959.93 2405.16 980.52 2447.5 865.2 2407.9 959.93 2405.16"/><polygon class="cls-261" points="980.52 2447.5 1099.97 2380.44 959.93 2405.16 980.52 2447.5"/><polygon class="cls-262" points="980.52 2447.5 1240.01 2380.44 1099.97 2380.44 980.52 2447.5"/><polygon class="cls-263" points="1240.01 2380.44 1225.59 2447.5 980.52 2447.5 1240.01 2380.44"/><polygon class="cls-264" points="381.25 2326.57 498.63 2447.5 354.47 2447.5 381.25 2326.57"/><polygon class="cls-265" points="642.56 2330.57 857.48 2380.44 852.84 2363.97 642.56 2330.57"/><polygon class="cls-266" points="857.48 2380.44 959.93 2405.16 852.84 2363.97 857.48 2380.44"/><polygon class="cls-267" points="27.03 2374.62 148.59 2359.85 148.59 2296.41 27.03 2374.62"/><polygon class="cls-268" points="264.92 2387.03 251.5 2447.5 148.59 2447.5 264.92 2387.03"/><path class="cls-269" d="M27,2374.62s14,78.15,17.3,72.88,104.26,0,104.26,0Z"/><polygon class="cls-270" points="-22.05 2196.5 27.03 2265.15 92.94 2256.12 -22.05 2196.5"/><polygon class="cls-271" points="1099.97 2380.44 1058.21 2427.42 980.52 2447.5 1099.97 2380.44"/><polygon class="cls-272" points="498.63 2314.54 579 2355.5 642.56 2330.57 498.63 2314.54"/><polygon class="cls-273" points="259.74 2281.59 325.64 2355.47 381.25 2326.57 259.74 2281.59"/></g><path class="cls-274" d="M671.23,2511l4,5.59,8,2.39s2.39-9.57,4.78-12l2.4-8.77-3.19-14.37s4-22.34,5.58-25.53,9.58-15.16,9.58-15.16,4-13.56,9.57-19.95,12.77-19.15,12.77-19.15l11.17-12.76,8.77-5.59c8-18.35,34.31-21.54,34.31-21.54l11.85-.38c-.13,1.87-.41,3.57-.41,3.57l-1.6,3.72-8,5.32-3.19,5.85L776,2396.66l.53,14.36s-2.13,11.7-3.72,14.36l.53,5.85,6.38,8.51s14.89,3.73,16.49,3.73,13.3.53,14.89,0l9.58-3.2,4.79-4.25-.54-4.79,5.32-2.66,4.26-11.7-3.19-17.55-3.19-14.9-8-11.7L818,2367.4l.26-3.63,13.83.44s26.33,3.19,34.31,21.54l8.77,5.59,11.17,12.76s7.18,12.77,12.77,19.15,9.57,19.95,9.57,19.95,8,12,9.58,15.16,5.58,25.53,5.58,25.53l-3.19,14.37,2.4,8.77c2.39,2.4,4.78,12,4.78,12l8-2.39,4-5.59,6.39-7.18s-1.6-14.36-1.6-15.16-5.59-9.57-5.59-9.57-5.58-15.16-6.38-26.34-12-35.9-12-35.9-17.55-37.5-19.15-39.89a23.28,23.28,0,0,0-2.39-3.2l-30.32-30.32-12.77-14.36-9.84-28.19,2.13-36.17s1.06-19.15,3.19-26.6a126.27,126.27,0,0,0,3.19-14.89l-3.19-9.58,1.07-11.7s5.32-35.11,7.44-50-1.06-35.11,1.07-39.36,5.32-22.34,5.32-26.6,3.19-39.36,3.19-39.36l2.13-25.53,2.12-20.22v-17l3.19-7.45,1.07-14.89,1.06-20.21c0-9.58,14.36-12.77,14.36-17.56s-27.12-1.59-27.12-1.59-4.79,19.15-6.39,23.93-4.78,20.75-8,30.32-8,46.28-9.57,51.07-14.36,59-17.55,71.81-8,43.09-9.58,51.06-1.59,19.15-6.38,20.75l-3.46,1.15-3.45-1.15c-4.79-1.6-4.79-12.77-6.38-20.75s-6.38-38.29-9.58-51.06-16-67-17.55-71.81-6.38-41.49-9.57-51.07-6.39-25.53-8-30.32-6.39-23.93-6.39-23.93-27.13-3.19-27.13,1.59,14.37,8,14.37,17.56l1.06,20.21,1.06,14.89,3.2,7.45v17l2.12,20.22,2.13,25.53s3.19,35.11,3.19,39.36,3.2,22.34,5.32,26.6-1.06,24.47,1.07,39.36,7.44,50,7.44,50l1.07,11.7-3.19,9.58a126.27,126.27,0,0,0,3.19,14.89c2.13,7.45,3.19,26.6,3.19,26.6l2.13,36.17L755,2329.1l-12.77,14.36-30.32,30.32a23.28,23.28,0,0,0-2.39,3.2c-1.6,2.39-19.15,39.89-19.15,39.89s-11.17,24.73-12,35.9-6.38,26.34-6.38,26.34-5.59,8.77-5.59,9.57-1.6,15.16-1.6,15.16Z"/><polygon class="cls-275" points="-579.61 -4.06 1866.79 226.59 1866.79 -4.06 -579.61 -4.06"/><polygon class="cls-276" points="1866.79 226.59 -188.81 189.52 -579.61 -4.06 1866.79 226.59"/><polygon class="cls-277" points="1866.79 226.59 -579.61 527.26 -579.61 192 1866.79 226.59"/><polygon class="cls-278" points="521.68 391.91 1866.79 527.26 1866.79 226.59 521.68 391.91"/><polygon class="cls-279" points="1866.79 527.26 -582.15 1029.75 -579.61 527.26 521.68 391.91 1866.79 527.26"/><polygon class="cls-280" points="496.97 808.33 1869.49 1029.75 1866.79 527.26 496.97 808.33"/><polygon class="cls-281" points="-582.15 1029.75 1549.64 1286.13 496.97 808.33 -582.15 1029.75"/><polygon class="cls-282" points="1549.64 1286.13 -585 1515.91 -585 1029.75 1549.64 1286.13"/><polygon class="cls-283" points="496.97 808.33 1866.79 1452.28 1866.79 1029.75 496.97 808.33"/><polygon class="cls-284" points="521.68 391.91 -585 1029.75 -579.61 527.26 521.68 391.91"/><polygon class="cls-285" points="521.68 391.91 496.97 808.33 1866.79 527.26 521.68 391.91"/><polygon class="cls-286" points="1527.68 1292.87 389.88 1647.09 1866.79 1845.83 1527.68 1292.87"/><path class="cls-287" d="M939.84,1337.36l-4-5.59-8-2.39s-2.39,9.57-4.78,12l-2.4,8.77,3.19,14.37s-4,22.34-5.58,25.53-9.58,15.16-9.58,15.16-4,13.56-9.57,20-12.77,19.15-12.77,19.15L875.21,1457l-8.77,5.59c-8,18.35-34.31,21.54-34.31,21.54l-11.85.38c.13-1.87.41-3.57.41-3.57l1.6-3.73,8-5.31,3.2-5.86,1.59-14.36-.53-14.36s2.13-11.7,3.72-14.36l-.53-5.85-6.38-8.51s-14.9-3.73-16.49-3.73-13.3-.53-14.89,0l-9.58,3.19-4.79,4.26.53,4.79-5.31,2.66-4.26,11.7,3.19,17.55,3.19,14.9,8,11.7L793,1481l-.26,3.63-13.83-.44s-26.33-3.19-34.31-21.54l-8.77-5.59-11.17-12.76s-7.19-12.77-12.77-19.15-9.57-20-9.57-20-8-12-9.58-15.16-5.58-25.53-5.58-25.53l3.19-14.37-2.4-8.77c-2.39-2.4-4.78-12-4.78-12l-8,2.39-4,5.59-6.39,7.18s1.6,14.36,1.6,15.16,5.59,9.57,5.59,9.57,5.58,15.16,6.38,26.33,12,35.91,12,35.91,17.55,37.5,19.15,39.89a23.28,23.28,0,0,0,2.39,3.2l30.32,30.31L755,1519.28l9.84,28.19-2.13,36.17s-1.06,19.15-3.19,26.6a126.27,126.27,0,0,0-3.19,14.89l3.19,9.58-1.07,11.7s-5.32,35.1-7.44,50,1.06,35.11-1.07,39.36-5.32,22.34-5.32,26.6-3.19,39.36-3.19,39.36l-2.13,25.53-2.12,20.22v17l-3.2,7.44-1.06,14.9-1.06,20.21c0,9.58-14.37,12.77-14.37,17.56s27.13,1.59,27.13,1.59,4.79-19.15,6.39-23.94,4.78-20.74,8-30.32,8-46.27,9.57-51.06,14.36-59,17.55-71.81,8-43.09,9.58-51.07,1.59-19.14,6.38-20.74l3.45-1.15,3.46,1.15c4.79,1.6,4.79,12.77,6.38,20.74s6.38,38.3,9.58,51.07,15.95,67,17.55,71.81,6.38,41.49,9.57,51.06,6.39,25.54,8,30.32,6.39,23.94,6.39,23.94,27.12,3.19,27.12-1.59-14.36-8-14.36-17.56l-1.06-20.21-1.07-14.9-3.19-7.44v-17l-2.12-20.22-2.13-25.53s-3.19-35.11-3.19-39.36-3.2-22.34-5.32-26.6,1.06-24.47-1.07-39.36-7.44-50-7.44-50l-1.07-11.7,3.19-9.58a126.27,126.27,0,0,0-3.19-14.89c-2.13-7.45-3.19-26.6-3.19-26.6l-2.13-36.17,9.84-28.19,12.77-14.37,30.32-30.31a23.28,23.28,0,0,0,2.39-3.2c1.6-2.39,19.15-39.89,19.15-39.89s11.17-24.74,12-35.91,6.38-26.33,6.38-26.33,5.59-8.77,5.59-9.57,1.6-15.16,1.6-15.16Z"/></g></g></svg>