<svg xmlns="http://www.w3.org/2000/svg" viewBox="0 0 26.21 21.53"><defs><style>.cls-1{fill:#102447;}</style></defs><title>home</title><g id="Layer_2" data-name="Layer 2"><g id="Layer_1-2" data-name="Layer 1"><path class="cls-1" d="M25.06,7.37,14.53.42A2.65,2.65,0,0,0,13.28,0h-.17l-.18,0a2.53,2.53,0,0,0-1.25.4l-10.52,7A2.57,2.57,0,0,0,4,11.66l.18-.12v10H22v-10l.21.14a2.5,2.5,0,0,0,1.41.42,2.57,2.57,0,0,0,1.42-4.71ZM11.36,19.88v-6.6h3.48v6.6Zm9,0H15.89a1.5,1.5,0,0,0,0-.37V12.18H10.26v7.33a2.21,2.21,0,0,0,0,.37H5.82V10.59L13.1,6l7.28,4.57Zm4.12-9.8a1,1,0,0,1-.86.46,1,1,0,0,1-.56-.17L16,5.73l-1.53-1h0a2.4,2.4,0,0,0-1.08-.43.82.82,0,0,0-.67,0,2.48,2.48,0,0,0-1.06.43h0L3.14,10.37a1,1,0,0,1-.57.17A1,1,0,0,1,2,8.65L10.59,3a6.88,6.88,0,0,1,2.59-1.3A5.6,5.6,0,0,1,15.63,3l8.58,5.65A1,1,0,0,1,24.5,10.08Z"/><path class="cls-1" d="M7.16,5.71,3.39,8.2A.56.56,0,0,0,3.23,9a.57.57,0,0,0,.46.25A.59.59,0,0,0,4,9.12L7.76,6.63a.54.54,0,0,0,.16-.76A.56.56,0,0,0,7.16,5.71Z"/><path class="cls-1" d="M9.09,4.42a.57.57,0,0,0-.16.79.57.57,0,1,0,.16-.79Z"/></g></g></svg>