<svg xmlns="http://www.w3.org/2000/svg" viewBox="0 0 17.56 18.06"><defs><style>.cls-1{fill:#082b49;}</style></defs><title>list</title><g id="Layer_2" data-name="Layer 2"><g id="Layer_1-2" data-name="Layer 1"><path class="cls-1" d="M17.22,5.86l-.79-.79a.65.65,0,0,0-.18-.15,1.15,1.15,0,0,0-1.45.15l-.6.6h0l-.4.4h0L12.89,7,7.08,12.79a.22.22,0,0,0,0,.08H7L6,15.41l-.41,1a.22.22,0,0,0,0,.25.24.24,0,0,0,.16.07l.09,0,1-.41,1-.4h0l1.52-.6h0l.08,0,3.39-3.39v5.63H.61V.61H8.55v4A.31.31,0,0,0,8.86,5h4V7l.61-.61V4.62a.31.31,0,0,0,0-.08v0a.15.15,0,0,0-.06-.09L9.07.09A.15.15,0,0,0,9,0H9L8.88,0H.3A.31.31,0,0,0,0,.3V17.75a.31.31,0,0,0,.3.31H13.2a.31.31,0,0,0,.3-.31V11.21l2.72-2.72.4-.4,0,0,.57-.57a1.15,1.15,0,0,0,.34-.82A1.11,1.11,0,0,0,17.22,5.86ZM9.16,1l3.3,3.3H9.16Zm5.2,5.11,1.78,1.77L16.06,8,14.29,6.23ZM6.26,16l.19-.44.28-.7.68.68-.71.28Zm1.62-.64-1-1,.42-1.05.9.91h0l.7.69Zm1.46-.66-.67-.67,3.74-3.74A.3.3,0,0,0,12,9.88L8.24,13.62,7.56,13,14,6.56l1.77,1.77ZM16.9,7.16l-.41.41L14.72,5.8l.41-.41a.69.69,0,0,1,1,0l.79.79a.7.7,0,0,1,.2.49A.68.68,0,0,1,16.9,7.16Z"/><path class="cls-1" d="M1.92,11.31h2v-2h-2Zm.23-1.77H3.69v1.54H2.15Z"/><path class="cls-1" d="M1.92,14.58h2v-2h-2Zm.23-1.77H3.69v1.54H2.15Z"/><rect class="cls-1" x="4.57" y="7.44" width="6.19" height="0.15"/><rect class="cls-1" x="4.57" y="6.54" width="7.18" height="0.15"/><rect class="cls-1" x="4.57" y="10.68" width="3.4" height="0.15"/><rect class="cls-1" x="4.57" y="9.78" width="4.24" height="0.15"/><rect class="cls-1" x="4.57" y="13.95" width="1.38" height="0.15"/><rect class="cls-1" x="4.57" y="13.05" width="1.75" height="0.15"/><path class="cls-1" d="M3.92,6.14V6h-2V8h2V6.3l.34-.43ZM3.69,7.81H2.15V6.26H3.69v.06L2.88,7l-.55-.22.57.86.79-1Z"/></g></g></svg>